<svg width="88" height="88" viewBox="0 0 88 88" fill="none" xmlns="http://www.w3.org/2000/svg"><path d="M44.0523 83.6936C22.2508 83.6936 4.38926 65.7446 4.38926 43.943C4.38926 39.0399 5.26483 34.3994 6.9284 30.0215L30.1309 76.6891C30.3935 77.302 30.8313 77.8274 31.5318 77.8274C32.2322 77.8274 32.67 77.302 32.9327 76.6891L43.6146 52.7862C43.7021 52.5235 43.8772 52.2609 44.1399 52.2609C44.4026 52.2609 44.4901 52.5235 44.6652 52.7862L55.3471 76.6891C55.6098 77.302 56.0476 77.8274 56.748 77.8274C57.4485 77.8274 57.8863 77.302 58.1489 76.6891L81.3514 30.0215C83.015 34.3994 83.8905 39.0399 83.8905 43.943C83.7154 65.7446 65.8539 83.6936 44.0523 83.6936ZM44.0523 34.9247C43.7897 34.9247 43.7021 34.662 43.527 34.3994L31.094 6.3813C35.1216 4.89284 39.4994 4.10483 44.0523 4.10483C48.6053 4.10483 52.9831 4.89284 57.0107 6.3813L44.5777 34.3994C44.4026 34.7496 44.315 34.9247 44.0523 34.9247ZM31.3566 63.7308C31.094 63.7308 31.0064 63.4681 30.8313 63.2054L10.6933 22.5792C14.2831 17.0632 19.0987 12.4227 24.965 9.18311L39.4994 41.4914C39.6745 42.0168 40.1123 42.1919 40.5501 42.1919H47.5546C48.0799 42.1919 48.4302 42.1043 48.6928 41.4914L63.2272 9.18311C69.0059 12.4227 73.9091 17.0632 77.4989 22.5792L57.1858 63.2054C57.0982 63.4681 56.9231 63.7308 56.6605 63.7308C56.3978 63.7308 56.3102 63.4681 56.1351 63.2054L48.5177 45.8693C48.255 45.2564 47.9048 45.1688 47.3795 45.1688H40.375C39.8496 45.1688 39.4994 45.2564 39.2367 45.8693L31.882 63.2054C31.7944 63.4681 31.6193 63.7308 31.3566 63.7308ZM44.0523 87.7212C68.3055 87.7212 87.8306 68.1961 87.8306 43.943C87.8306 19.6899 68.3055 0.164795 44.0523 0.164795C19.7992 0.164795 0.274109 19.6899 0.274109 43.943C0.274109 68.1961 19.7992 87.7212 44.0523 87.7212Z" fill="#10284B"></path></svg>