<svg width="32" height="32" viewBox="0 0 64 64" fill="none" xmlns="http://www.w3.org/2000/svg" aria-labelledby="starkLogoNavigation" class="t-color-blue"><title id="starkLogoNavigation" lang="en">Stark logo</title><rect width="64" height="64" rx="32" fill="#10284b"></rect><path fill-rule="evenodd" clip-rule="evenodd" d="M31.0399 47.9701V43.1582C34.3333 43.4448 37.5845 42.2588 39.9196 39.919C43.6395 36.1988 44.2697 30.3917 41.4344 25.9603L25.9596 41.4337L22.5097 44.8833C21.8636 44.406 21.254 43.881 20.6862 43.3128C14.4379 37.0651 14.4379 26.9352 20.6862 20.6871C23.92 17.4463 28.39 15.7502 32.9599 16.0298V20.8418C29.6666 20.5552 26.4154 21.7412 24.0803 24.0809C20.3604 27.8011 19.7302 33.6082 22.5655 38.0397L38.0402 22.5665L41.4903 19.1169C42.1364 19.5942 42.746 20.1192 43.3138 20.6874C49.5621 26.9351 49.5621 37.065 43.3138 43.3131C40.0799 46.5539 35.6099 48.2499 31.0399 47.9701Z" fill="white"></path></svg>