<svg width="275" height="58" viewBox="0 0 275 58" fill="none" xmlns="http://www.w3.org/2000/svg"><path d="M97.0695 33.4063L95.4305 37.9923H95.2939C95.0207 36.9582 94.5199 35.3846 93.7003 33.4962L84.9131 11.69H76.308V46.445H81.9992V24.9985C81.9992 23.6497 81.9992 22.121 81.9536 20.2326C81.9081 19.2884 81.8171 18.5691 81.7715 18.0295H81.9081C82.1813 19.3784 82.5 20.3675 82.7277 20.997L93.2906 46.3551H97.2972L107.769 20.7722C107.997 20.1877 108.224 19.0187 108.452 18.0295H108.589C108.452 20.5923 108.361 22.8853 108.315 24.2791V46.3101H114.371V11.6001H106.084L97.0695 33.4063ZM120.108 21.4016H126.026V46.3101H120.108V21.4016ZM123.113 10.8807C122.111 10.8807 121.291 11.2404 120.608 11.8698C119.925 12.4993 119.561 13.3086 119.561 14.2977C119.561 15.2419 119.925 16.0512 120.608 16.6807C121.291 17.3101 122.111 17.6249 123.113 17.6249C124.114 17.6249 124.979 17.2652 125.617 16.6807C126.3 16.0512 126.664 15.2419 126.664 14.2977C126.664 13.3536 126.3 12.5443 125.617 11.8698C125.025 11.2404 124.16 10.8807 123.113 10.8807ZM147.016 21.1768C145.923 20.952 144.785 20.8171 143.692 20.8171C141.006 20.8171 138.547 21.4016 136.498 22.5706C134.449 23.7396 132.81 25.3582 131.763 27.3815C130.671 29.4497 130.124 31.8326 130.124 34.5753C130.124 36.9582 130.671 39.0714 131.718 41.0047C132.765 42.8931 134.222 44.4218 136.18 45.4559C138.046 46.49 140.232 47.0295 142.69 47.0295C145.513 47.0295 147.926 46.445 149.839 45.366L149.884 45.321V39.9256L149.656 40.1055C148.791 40.7349 147.79 41.2745 146.788 41.5892C145.741 41.9489 144.785 42.1287 143.965 42.1287C141.598 42.1287 139.731 41.4543 138.411 39.9706C137.045 38.5318 136.362 36.5536 136.362 34.0807C136.362 31.5179 137.045 29.4946 138.456 28.0109C139.868 26.5272 141.734 25.7629 144.011 25.7629C145.923 25.7629 147.881 26.3923 149.656 27.6512L149.884 27.8311V22.121L149.839 22.076C149.065 21.7613 148.199 21.4016 147.016 21.1768ZM166.548 20.997C165.091 20.997 163.725 21.4466 162.541 22.3908C161.54 23.2001 160.857 24.3691 160.265 25.7629H160.219V21.4016H154.3V46.3101H160.219V33.5861C160.219 31.428 160.675 29.6295 161.676 28.3256C162.678 26.9768 163.953 26.3024 165.501 26.3024C166.047 26.3024 166.594 26.4373 167.276 26.5272C167.914 26.707 168.369 26.8869 168.688 27.1117L168.916 27.2915V21.4466L168.779 21.4016C168.369 21.1318 167.55 20.997 166.548 20.997ZM182.666 20.8621C178.522 20.8621 175.199 22.076 172.877 24.459C170.509 26.8419 169.371 30.1241 169.371 34.2605C169.371 38.1272 170.555 41.2745 172.831 43.5675C175.108 45.8156 178.204 46.9846 182.074 46.9846C186.126 46.9846 189.358 45.7706 191.68 43.3427C194.048 40.9148 195.186 37.6776 195.186 33.676C195.186 29.7194 194.094 26.5722 191.863 24.2791C189.723 21.9861 186.581 20.8621 182.666 20.8621ZM187.401 40.0156C186.308 41.4094 184.578 42.0838 182.438 42.0838C180.298 42.0838 178.568 41.4094 177.339 39.9256C176.109 38.5318 175.517 36.5086 175.517 33.9458C175.517 31.2931 176.155 29.2698 177.339 27.8311C178.568 26.3923 180.252 25.6729 182.392 25.6729C184.487 25.6729 186.126 26.3474 187.31 27.7412C188.493 29.1349 189.131 31.1582 189.131 33.8109C189.04 36.5086 188.539 38.6218 187.401 40.0156ZM208.39 31.7427C206.523 30.9784 205.339 30.3939 204.793 29.8993C204.338 29.4497 204.11 28.8202 204.11 28.0109C204.11 27.3365 204.383 26.6621 205.066 26.2125C205.749 25.7629 206.523 25.538 207.661 25.538C208.663 25.538 209.71 25.7179 210.712 25.9877C211.714 26.2574 212.624 26.6621 213.353 27.2016L213.58 27.3815V21.8962L213.444 21.8512C212.761 21.5815 211.85 21.3117 210.757 21.0869C209.665 20.907 208.663 20.8171 207.844 20.8171C205.021 20.8171 202.699 21.4915 200.877 22.9753C199.056 24.3691 198.191 26.2574 198.191 28.4605C198.191 29.6295 198.373 30.6636 198.783 31.5179C199.193 32.3722 199.785 33.1815 200.604 33.8559C201.424 34.4853 202.608 35.2047 204.247 35.8791C205.613 36.4636 206.66 36.9132 207.297 37.2729C207.935 37.6326 208.344 38.0373 208.663 38.352C208.891 38.7117 209.027 39.1613 209.027 39.7458C209.027 41.4094 207.752 42.2187 205.157 42.2187C204.156 42.2187 203.108 42.0388 201.879 41.6342C200.65 41.2295 199.512 40.645 198.555 39.9706L198.328 39.7908V45.5008L198.464 45.5458C199.329 45.9505 200.377 46.2202 201.651 46.535C202.926 46.7598 204.065 46.9396 205.066 46.9396C208.117 46.9396 210.621 46.2652 212.397 44.7815C214.218 43.3427 215.174 41.4993 215.174 39.1163C215.174 37.4528 214.719 35.9691 213.717 34.845C212.397 33.766 210.757 32.6419 208.39 31.7427ZM230.791 20.8621C226.647 20.8621 223.324 22.076 221.002 24.459C218.68 26.8419 217.496 30.1241 217.496 34.2605C217.496 38.1272 218.68 41.2745 220.956 43.5675C223.233 45.8156 226.329 46.9846 230.199 46.9846C234.251 46.9846 237.483 45.7706 239.805 43.3427C242.173 40.9148 243.311 37.6776 243.311 33.676C243.311 29.7194 242.219 26.5722 239.988 24.2791C237.848 21.9861 234.706 20.8621 230.791 20.8621ZM235.48 40.0156C234.387 41.4094 232.657 42.0838 230.517 42.0838C228.332 42.0838 226.647 41.4094 225.418 39.9256C224.189 38.5318 223.597 36.5086 223.597 33.9458C223.597 31.2931 224.234 29.2698 225.418 27.8311C226.647 26.3923 228.332 25.6729 230.472 25.6729C232.521 25.6729 234.205 26.3474 235.389 27.7412C236.573 29.1349 237.21 31.1582 237.21 33.8109C237.21 36.5086 236.618 38.6218 235.48 40.0156ZM274.954 26.2125V21.4016H268.99V14.028L268.808 14.0729L263.162 15.7365L263.026 15.7815V21.4016H254.102V18.2543C254.102 16.8156 254.466 15.6915 255.103 14.9722C255.741 14.2528 256.697 13.8931 257.881 13.8931C258.7 13.8931 259.565 14.0729 260.522 14.4776L260.749 14.6125V9.53185L260.613 9.48689C259.793 9.21712 258.7 9.03728 257.289 9.03728C255.513 9.03728 253.965 9.44193 252.554 10.1163C251.142 10.8807 250.095 11.9148 249.321 13.3086C248.547 14.6574 248.137 16.1861 248.137 17.9396V21.4016H243.994V26.1675H248.137V46.3101H254.102V26.2125H263.026V39.0264C263.026 44.2869 265.53 46.9396 270.538 46.9396C271.358 46.9396 272.223 46.8047 273.042 46.6698C273.907 46.49 274.545 46.2652 274.909 46.0853L274.954 46.0404V41.2295L274.727 41.4094C274.363 41.6342 274.044 41.814 273.497 41.9489C273.042 42.0838 272.632 42.1287 272.314 42.1287C271.13 42.1287 270.31 41.859 269.719 41.1846C269.172 40.5551 268.899 39.521 268.899 37.9923V26.2125H274.954Z" fill="#10284B"></path><path d="M0 6.10352e-05H27.9098V27.5613H0V6.10352e-05Z" fill="#10284B"></path><path d="M30.8237 6.10352e-05H58.7334V27.5613H30.8237V6.10352e-05Z" fill="#10284B"></path><path d="M0 30.4388H27.9098V58.0001H0V30.4388Z" fill="#10284B"></path><path d="M30.8237 30.4388H58.7334V58.0001H30.8237V30.4388Z" fill="#10284B"></path></svg>