<svg width="260" height="56" viewBox="0 0 260 56" fill="none" xmlns="http://www.w3.org/2000/svg"><path d="M88.7337 38.4084C88.7337 46.8037 83.9681 50.476 76.6124 50.476C69.2568 50.476 64.6363 46.7621 64.6363 38.5956V23.1158H71.9194V38.4812C71.9194 42.1951 73.8049 43.974 76.685 43.974C79.5651 43.974 81.4506 42.2991 81.4506 38.6685V23.1158H88.7337V38.4084ZM99.6014 39.2614C99.6014 37.0352 100.855 35.8492 102.554 35.8492C104.222 35.8492 105.362 37.0352 105.362 39.2614V50.0599H112.386V36.9936C112.386 32.4266 109.837 29.6073 105.579 29.6073C102.73 29.6073 100.886 31.1262 99.591 32.8011V29.9818H92.5669V50.0599H99.591V39.2614H99.6014ZM116.157 50.0599H123.181V29.9818H116.157V50.0599ZM116.157 27.6932H123.181V23.1158H116.157V27.6932ZM136.752 50.4656C143.186 50.4656 147.838 45.753 147.838 40.0001C147.838 34.2471 143.217 29.6073 136.825 29.6073C130.391 29.6073 125.74 34.3199 125.74 40.0729C125.729 45.8258 130.35 50.4656 136.752 50.4656ZM136.752 35.5475C139.228 35.5475 141 37.5553 141 40.0729C141 42.5592 139.415 44.5254 136.825 44.5254C134.349 44.5254 132.577 42.5176 132.577 40.0001C132.577 37.5137 134.162 35.5475 136.752 35.5475ZM157.234 39.2614C157.234 37.0352 158.488 35.8492 160.187 35.8492C161.844 35.8492 162.994 37.0352 162.994 39.2614V50.0599H170.019V36.9936C170.019 32.4266 167.47 29.6073 163.212 29.6073C160.363 29.6073 158.519 31.1262 157.224 32.8011V29.9818H150.2V50.0599H157.224V39.2614H157.234ZM191.505 36.0781C194.313 37.0976 196.582 39.0118 196.571 42.476V42.5488C196.571 44.8999 195.566 46.8141 193.816 48.0937C192.065 49.3837 189.609 50.0599 186.677 50.0599H174.639V23.1158H186.191C189.257 23.1158 191.723 24.0001 193.318 25.5501C194.468 26.7257 195.111 28.2237 195.111 29.9923V30.0651C195.111 33.1964 193.37 35.0482 191.505 36.0781ZM178.255 34.8089H185.693C187.434 34.8089 188.874 34.4136 189.858 33.6854C190.842 32.9571 191.402 31.9168 191.402 30.4708V30.398C191.381 28.0365 189.599 26.4968 185.921 26.4656H178.265V34.8089H178.255ZM192.862 42.2887C192.852 40.9571 192.324 39.9793 191.246 39.2614C190.158 38.5436 188.47 38.1379 186.222 38.1379H178.265V46.7101H186.75C190.656 46.6789 192.862 45.056 192.873 42.372V42.2887H192.862ZM207.532 29.6802C210.34 29.6802 212.578 30.45 214.059 31.9168C215.489 33.3421 216.193 35.3291 216.193 37.8674V50.0703H212.64V47.7504C211.21 49.238 209.055 50.4656 206.009 50.4656H205.999C204.113 50.4656 202.228 49.935 200.798 48.8739C199.369 47.8128 198.395 46.1795 198.395 44.0885V44.0157C198.395 41.8414 199.296 40.1249 200.85 39.0014C202.394 37.8778 204.549 37.3265 207.056 37.3265C209.356 37.3265 211.044 37.6177 212.65 38.0443V37.8986C212.65 36.2445 212.153 35.0482 211.262 34.2367C210.36 33.4357 209.024 32.9988 207.252 32.9988C205.015 32.9988 203.274 33.5397 201.492 34.3512L201.15 34.5072L200.042 31.4903L200.332 31.3551C202.487 30.3668 204.621 29.6698 207.532 29.6802ZM212.671 41.0508C211.293 40.6659 209.532 40.3121 207.346 40.3121C203.813 40.333 202.021 41.7894 202.021 43.87V43.9428C202.021 45.056 202.518 45.8986 203.336 46.5124C204.155 47.1158 205.305 47.4591 206.558 47.4591C208.278 47.4591 209.822 46.9389 210.92 46.0859C212.018 45.2224 212.681 44.0261 212.681 42.6008V41.0508H212.671ZM229.599 29.5657C226.646 29.5553 224.637 30.8557 223.29 32.5826V29.9818H219.705V50.0703H223.29V38.6164C223.311 35.1418 225.6 32.9051 228.77 32.8843C232.013 32.9155 233.764 34.9129 233.795 38.3876V50.0599H237.379V37.6698C237.379 35.2978 236.675 33.2588 235.328 31.8232C233.992 30.3876 232.023 29.5657 229.599 29.5657ZM250.392 38.6789L258.918 29.9714H254.339L244.352 40.3746V23.1054H240.757V50.0495H244.352V44.7855L247.916 41.1964L254.733 50.0599H259.063L250.392 38.6789Z" fill="#10284B"></path><path d="M44.5109 14.6935V34.8027C44.5109 51.3541 29.6339 57.6063 16.0519 55.5777C20.8175 54.3606 25.2205 51.146 25.2205 42.397V33.1798C25.2205 24.4828 27.9245 16.1499 44.5109 14.6935ZM0.0559692 0.0562744V35.0732C0.0559692 50.9587 9.5354 53.3411 12.6227 53.83C15.8654 54.3502 20.0094 52.8105 21.812 50.0641C19.5536 48.6909 19.3464 44.0719 19.3464 38.6414V17.9184C19.3464 4.55042 9.90836 0.0562744 0.0559692 0.0562744Z" fill="#10284B"></path></svg>