<svg width="139" height="176" viewBox="0 0 139 176" fill="none" xmlns="http://www.w3.org/2000/svg" style="margin-left: 0px;"><path d="M0.89895 13.2281C-0.0336981 14.0858 1.57846 12.9981 0.371114 13.8654C0.363919 13.6594 0.491707 13.3799 0.89895 13.2281Z" fill="#99D6CC"></path><path d="M126.732 157.276C126.247 153.237 127.164 147.979 126.392 143.606C126.307 143.128 126.878 143.727 126.7 142.564C126.458 141.541 126.277 140.31 126.094 139.01C125.911 137.71 125.795 136.339 125.607 134.902C125.419 133.464 125.3 132.025 125.115 130.656C125.022 129.972 124.927 129.219 124.903 128.532C124.811 127.848 124.718 127.163 124.628 126.548L124.843 126.815C124.741 125.856 124.082 124.71 123.843 123.756C123.911 123.754 124.058 124.024 124.12 123.815C123.769 123.621 123.506 121.98 123.219 121.646C123.205 121.234 123.411 121.227 123.391 120.678L122.963 120.212C122.389 119.544 122.147 118.521 121.837 117.501C121.526 116.48 121.279 115.32 120.762 114.307C120.834 114.373 120.978 114.574 120.971 114.368C119.343 111.056 117.683 106.851 115.771 103.274C115.913 103.406 116.187 103.397 116.18 103.191C115.835 103.134 115.178 102.057 114.664 101.112C114.713 100.561 113.51 99.5713 113.126 98.4158L113.266 98.4797C112.555 97.817 112.739 97.1917 112.033 96.6664L111.943 96.0507C111.32 95.935 111.486 94.7604 110.848 94.2326L110.782 94.3036C110.282 93.771 110.265 93.2903 109.903 92.753L109.9 92.6843C108.962 91.4107 108.656 90.5276 108.389 90.7432C108.299 90.1275 109.325 91.9481 109.222 90.9891C106.05 86.7683 102.806 82.4812 99.2973 78.4785C99.0034 77.9387 98.7854 77.6025 98.7806 77.4652C98.4253 77.1338 97.3569 76.071 96.9353 75.8107C97.0774 75.9433 96.8546 75.4698 96.639 75.2023C96.0608 74.3974 95.6583 74.6865 95.0115 73.884C95.3621 74.078 95.5705 74.1395 95.5633 73.9335C94.7225 73.4816 93.8672 72.6176 93.0879 71.9573C93.2276 72.0212 93.4384 72.1513 93.5047 72.0802C92.453 71.4982 92.0098 70.6198 91.0955 70.033L91.5124 70.1559C90.4368 68.8871 90.8919 70.1088 89.8946 69.1123C90.1764 69.3087 90.1716 69.1714 90.2379 69.1003C88.9802 68.5255 87.4143 66.9988 86.2916 66.3504C86.3603 66.348 86.3603 66.348 86.3603 66.348C85.7965 65.9552 85.2279 65.425 84.5931 64.9659C84.027 64.5044 83.3235 64.0476 82.6911 63.6572C82.2646 63.2596 83.1621 63.3657 81.8262 62.5186C81.6322 62.8691 79.5807 61.2219 80.0926 62.0978C79.5975 61.7026 78.8916 61.1772 78.2568 60.7181C77.622 60.2589 76.9895 59.8685 76.5727 59.7455C77.1293 59.9324 76.2716 58.9997 77.2522 59.5155L76.6789 58.848C76.8825 58.7721 77.3824 59.3047 77.2354 59.0348C76.7451 58.7769 75.3454 58.0695 74.9238 57.8092C73.9504 57.4994 72.9179 57.4667 71.4518 56.8304C72.2144 57.01 71.2929 56.2171 71.7808 56.4064C71.0206 56.2954 70.1917 56.1868 69.4339 56.1445C68.9461 55.9553 69.4906 55.7988 68.7256 55.5505C68.7304 55.6878 68.3823 55.5625 68.1076 55.5721C67.9654 55.4395 66.0187 54.8199 65.9356 54.4103C65.7911 54.2091 66.7693 54.6562 66.2766 54.3297C65.3719 54.0175 65.2369 54.0909 64.3322 53.7788L64.3298 53.7101C63.7021 53.457 62.4588 53.2941 63.0226 53.687C63.4394 53.8099 62.9444 53.4147 63.5057 53.7389C63.0274 53.8243 61.9191 53.588 60.9481 53.3469C61.2914 53.3349 61.2891 53.2662 61.424 53.1928C60.0482 53.172 58.6676 53.014 57.2207 52.927C57.1592 53.1354 57.8291 52.6307 58.0399 52.7609C56.2329 52.2052 54.1871 52.6892 52.6619 52.3299C52.9366 52.3203 52.8089 52.5998 52.8065 52.5311C51.9114 52.4936 51.9729 52.2852 51.3572 52.3755C51.2814 52.1718 50.6042 52.4705 50.0573 52.5584C49.7874 52.7053 49.9175 52.4945 50.3958 52.409C49.9862 52.4921 48.9633 52.7341 47.803 52.9809C46.6428 53.2276 45.4163 53.5455 44.4597 53.7164C44.5308 53.7827 43.4536 54.4391 43.0464 54.5908L43.1055 54.3137C42.6934 54.3281 41.7513 54.9111 41.6091 54.7785C41.2777 55.1339 42.0164 54.6268 42.8284 54.2547C43.5718 53.8849 44.3838 53.5128 43.7778 53.8777C43.361 53.7548 42.3006 54.8919 42.4235 54.4751C42.0163 54.6268 41.6826 54.9135 41.2777 55.1339C40.8729 55.3543 40.5368 55.5723 40.1272 55.6553C40.3308 55.5795 40.5862 55.0205 39.9802 55.3855C38.903 56.0419 39.7151 55.6697 38.9102 56.2479L38.4439 56.6767C38.5198 56.8803 37.504 57.3283 38.051 57.2405C37.7739 57.1814 36.7184 58.4558 36.5667 58.0486L36.486 57.7076C36.086 58.0654 36.0341 58.5485 35.8425 58.9677C35.7738 58.9701 35.6388 59.0436 35.6364 58.9749C35.9255 59.3773 34.7062 59.9012 34.5952 60.6614C33.7289 61.4479 32.9576 62.9875 32.4865 63.279C32.2406 64.1126 32.061 64.8752 31.6114 65.7847C31.6729 65.5763 31.732 65.2992 31.6609 65.2329C31.3343 65.7256 31.3415 65.9316 31.2921 66.4834C31.2897 66.4147 31.0933 66.6966 30.8992 67.0472C30.7052 67.3977 30.516 67.8856 30.3219 68.2362C30.2844 69.1313 30.6182 68.8446 30.7603 68.9772C30.429 69.3325 30.4505 69.9506 30.4721 70.5686C30.4937 71.1866 30.6527 71.7999 30.3948 72.2902C30.3165 72.0179 30.1456 71.0613 30.0322 71.7528C29.9021 71.9636 29.9092 72.1696 29.9164 72.3756C29.9236 72.5817 29.9995 72.7853 30.0754 72.9889C30.1513 73.1925 30.2295 73.4648 30.3077 73.7371C30.386 74.0094 30.4643 74.2817 30.4739 74.5563L30.8053 74.201C30.6208 74.8262 31.4832 75.8962 31.0025 75.913C31.2205 76.2491 31.3963 77.3431 31.6614 77.0588C31.7468 77.5371 32.0406 78.0769 32.2634 78.5504C32.5549 79.0215 32.8488 79.5613 33.2752 79.9589C33.4884 80.1578 33.6354 80.4276 33.7799 80.6289C33.9932 80.8277 34.1377 81.0289 34.2822 81.2301C34.5713 81.6326 34.858 81.9663 34.9386 82.3073C35.0784 82.3712 35.2915 82.57 35.4313 82.6339C35.6421 82.764 35.7818 82.8279 35.777 82.6905C35.4856 82.2194 35.147 82.3688 35.0711 82.1651C35.2819 82.2953 35.4193 82.2905 35.4193 82.2905C35.8481 82.7568 36.2698 83.0171 35.5807 82.9724C36.0805 83.505 36.495 83.5593 36.9781 83.6112C37.1865 83.6726 37.4612 83.6631 37.6696 83.7245C37.9467 83.7836 38.2261 83.9114 38.6453 84.103C38.5104 84.1765 38.5863 84.3801 39.0718 84.5006L40.1067 84.602C41.1487 84.9094 40.6752 85.1322 40.6161 85.4093C41.2389 85.525 41.9991 85.636 42.3377 85.4867C42.5509 85.6855 42.828 85.7446 43.0388 85.8747C42.4798 85.6192 43.5833 85.7182 43.8556 85.6399C43.7869 85.6423 43.6521 85.7158 43.5834 85.7182C43.7255 85.8507 44.4074 85.6894 44.7508 85.6774C44.6749 85.4738 43.9195 85.5002 43.5051 85.4459C43.846 85.3652 44.3244 85.2798 44.6629 85.1304C44.5376 85.4786 45.6267 85.1655 46.105 85.0801C46.652 84.9922 46.64 84.6489 46.7774 84.6441C46.7798 84.7127 47.052 84.6345 47.1894 84.6297C47.3243 84.5562 47.4617 84.5514 47.3316 84.7622C47.1966 84.8357 46.8509 84.779 46.652 84.9922C46.9954 84.9802 47.0736 85.2525 47.746 84.8165C48.2147 84.4564 47.3882 84.4165 48.4087 84.1058C48.2099 84.319 48.2123 84.3877 48.0135 84.6009C48.3544 84.5202 48.6929 84.3709 48.9628 84.224L48.887 84.0204C49.0243 84.0156 48.9581 84.0866 49.0268 84.0842C49.0882 83.8758 49.4244 83.6578 49.6919 83.4422C49.9594 83.2266 50.2244 82.9423 50.2859 82.7339C50.4871 82.5894 50.6883 82.4448 50.9582 82.2979C51.1594 82.1534 51.4293 82.0064 51.6305 81.8619L51.5643 81.933C52.1017 81.5704 52.5608 80.9356 52.7476 80.379L52.75 80.4477C52.9465 80.1658 53.4056 79.531 53.5285 79.1142C54.125 78.4745 54.4995 79.3553 54.7407 78.3843C55.195 77.6121 55.0337 76.9302 54.6999 77.2169C55.6157 75.8785 55.8967 74.0811 56.7463 72.8138C56.7367 72.5391 56.6041 72.6813 56.7247 72.1958C57.5407 69.9671 57.7929 67.3456 58.6233 65.529C58.5786 66.2181 58.8317 65.5905 58.9714 65.6543C58.8812 65.0387 59.2933 65.0243 59.009 64.7592C58.803 64.7664 58.6632 64.7025 58.4788 65.3278C58.6368 63.9471 58.9059 61.8063 59.2228 61.039C59.0975 61.3871 59.0192 61.1148 59.0072 60.7715C59.3554 60.8968 59.5254 59.8596 59.4279 59.0379L59.2172 58.9078L59.4751 58.4175C59.3944 58.0765 59.0486 58.0198 59.2969 57.2548C59.3656 57.2524 59.5005 57.179 59.5644 57.0392C59.3983 56.22 59.1515 55.0597 59.395 54.1574C59.5252 53.9466 59.5843 53.6695 59.7144 53.4587C59.7 53.0467 59.4724 52.4358 59.4277 53.125C59.6497 51.6046 59.6161 50.6432 59.874 50.1529C59.0962 47.5674 58.7582 43.7976 58.378 40.7857L58.5178 40.8495C58.5577 40.0231 58.16 40.4495 58.2095 39.8977C58.4251 40.1652 58.4602 39.2014 58.7565 39.8099C58.7157 38.6425 58.2254 38.3846 57.993 37.6364C57.7846 37.5749 58.2182 38.1786 57.9411 38.1195C57.8677 37.9845 57.8149 36.4738 57.4005 36.4195C57.4596 36.1424 57.739 36.2701 57.8812 36.4027L57.5825 35.7256C57.7549 34.757 58.6773 37.5437 58.9161 36.5041L58.7572 35.8908C58.9392 35.1969 59.5014 37.515 59.2378 35.874C58.9392 35.1969 58.302 34.6691 58.326 35.3558C57.8636 33.9281 57.414 34.8376 57.0179 33.3389C57.0698 32.8558 57.4045 34.5629 57.5985 34.2124C57.6384 33.3859 57.0674 32.7871 56.9747 32.1028C57.0698 32.8558 56.5699 32.3232 56.3495 31.9183C56.252 31.0967 56.776 32.316 56.4629 31.2268C56.2521 31.0967 55.7378 30.1521 55.9063 31.04C55.416 30.7821 55.5909 29.8822 55.0934 29.4183C55.2139 28.9328 56.1546 30.275 55.8368 29.0485C55.6403 29.3304 54.8985 27.7749 54.7875 28.5351C54.702 28.0568 54.8346 27.9147 55.1875 28.1774C55.0925 27.4244 54.0408 26.8423 54.4385 26.4159L54.0903 26.2905C54.0831 26.0845 54.0025 25.7436 53.9881 25.3315C53.7629 24.7894 52.6969 23.7953 53.1041 23.6435C52.962 23.511 52.232 22.2989 52.2536 22.9169C52.5571 23.7314 52.9667 23.6483 52.851 24.2712C52.827 23.5845 52.1945 23.194 51.8392 22.8626L51.9717 22.7205C51.7585 22.5217 51.3936 21.9156 51.1852 21.8542C51.396 21.9843 51.3912 21.847 51.313 21.5747L50.8961 21.4517C50.1071 20.5167 51.0853 20.9638 50.3674 20.0951L51.0757 20.6891C50.9336 20.5566 50.8481 20.0783 50.4904 19.6782C50.1446 19.6216 49.7278 19.4986 49.4531 19.5082C48.958 19.113 49.4388 19.0962 48.8774 18.772L49.6496 19.2263C49.7893 19.2902 49.5569 18.542 48.9835 17.8745C48.5595 17.5455 47.65 17.096 48.2258 17.8322C47.9391 17.4984 47.5765 16.961 47.9933 17.084C47.214 16.4237 47.9343 17.3611 47.2284 16.8357C47.079 16.4971 46.4274 15.5573 46.0625 14.9513C46.4107 15.0766 46.6878 15.1357 47.0359 15.261C46.8938 15.1285 46.7517 14.9959 46.6095 14.8634C47.4432 15.1093 46.4554 14.3875 47.0071 14.437C46.7205 14.1032 46.2302 13.8453 45.8796 13.6513C46.1759 14.2597 45.8277 14.1344 45.3422 14.0138C44.8567 13.8933 44.3002 13.7064 44.3097 13.9811C43.6062 13.5244 43.5943 13.1811 43.5136 12.8401C43.433 12.4991 43.286 12.2293 42.3174 12.0568C42.4643 12.3267 41.6331 12.1495 42.545 12.6677C41.6994 12.0784 41.7209 12.6964 40.7994 11.9036C41.6355 12.2181 40.2165 10.9613 41.4694 11.3989C41.3344 11.4723 42.0355 11.8604 42.2439 11.9219C41.9548 11.5194 42.5753 11.5665 41.661 10.9796C41.0997 10.6555 40.2612 10.2722 40.2708 10.5469C40.1431 10.8264 41.1803 10.9964 40.631 11.0156C39.4444 10.507 39.4275 10.0263 38.748 10.2563C39.5154 10.5733 39.5274 10.9166 39.4635 11.0564C39.184 10.9286 38.907 10.8696 38.5588 10.7442L38.831 10.6659C37.5662 9.88505 38.2841 10.7538 37.024 10.1102L36.2399 9.31257C36.4435 9.2367 36.9338 9.4946 37.3506 9.61755C37.7698 9.80918 38.1203 10.0032 38.1084 9.65985C37.2675 9.20792 36.8603 9.35965 36.0882 8.90533C36.2966 8.96681 36.5736 9.02589 36.7133 9.08977C36.4339 8.96202 36.3364 8.14036 34.8895 8.05337C34.198 7.94001 34.6859 8.12924 34.5558 8.34005C33.0969 7.90971 32.6186 7.99516 31.65 7.82272C31.9127 7.46977 29.9851 7.39958 31.1501 7.29014C31.3633 7.48896 31.9886 7.67339 32.6801 7.78675C33.3053 7.97118 33.9968 8.08454 34.3378 8.00388C33.9729 7.39783 35.4533 8.44622 35.9244 8.15474C34.7402 7.71481 34.9342 7.36426 34.8536 7.0233C34.5054 6.89795 34.1621 6.90994 33.9561 6.91713C33.7573 7.13034 34.1741 7.25329 34.115 7.53038C32.791 7.02657 31.4791 6.86612 30.6574 6.96357C30.2382 6.77194 30.4346 6.49006 30.9888 6.60822C29.3311 6.39109 27.6023 6.10768 26.0157 5.95682C26.506 6.21472 26.0939 6.22911 25.6108 6.17723C25.1301 6.19401 24.6494 6.2108 24.9313 6.40722C25.7601 6.51579 26.4612 6.90383 25.9853 7.05796C25.5022 7.00608 25.9782 6.85195 25.7698 6.79047C25.0902 7.02047 24.7253 6.41441 24.1192 6.77935C25.6276 6.65792 24.4434 6.21799 24.7085 5.93371C23.6146 6.10942 24.7676 5.65663 23.6689 5.695C22.5749 5.87071 21.2773 6.12229 20.0484 6.37147C18.4618 6.22061 16.222 7.05513 14.9292 7.44405C14.1738 7.47043 14.5691 6.97534 13.7499 7.14146C12.8667 7.44732 14.5124 7.3211 13.1462 7.57507L13.21 7.43533C13.0088 7.57987 12.3932 7.67012 11.851 7.89532C11.2402 8.12292 10.7004 8.41679 10.6437 8.76254L10.8305 8.20598C10.5582 8.28424 10.4257 8.42638 10.2245 8.57092C10.151 8.43597 9.80763 8.44796 10.2125 8.22756C9.73176 8.24435 9.32698 8.46475 8.99082 8.68275C8.58598 8.90316 8.25217 9.18983 7.84733 9.41024C8.05335 9.40304 8.25938 9.39585 8.46539 9.38865C7.79307 9.82466 7.25332 10.1185 6.64487 10.4148C6.10509 10.7087 5.49665 11.0049 4.8954 11.5072L4.81946 11.3036L4.15433 11.9456C4.21101 11.5999 3.39894 11.972 3.14104 12.4623C3.66883 11.8251 4.19664 11.1878 4.72683 10.6193C5.33768 10.3917 4.26771 11.2541 4.74841 11.2373C5.16044 11.2229 6.30149 10.4268 6.35817 10.081C5.88467 10.3038 5.8871 10.3725 5.55573 10.7279C5.20518 10.5338 5.94611 10.0954 6.13774 9.6762C5.86785 9.82314 5.52935 9.97247 5.53415 10.1098C5.93179 9.68339 6.4029 9.39192 7.21017 8.88245C6.74386 9.31126 7.62215 8.86806 7.42333 9.08127C7.34267 8.74031 8.08365 8.3019 9.168 7.8515C9.6487 7.83472 10.1223 7.61191 10.6596 7.24937C11.1994 6.9555 11.8055 6.59056 12.4187 6.43164C12.0235 6.92673 11.4198 7.36034 10.7475 7.79635C11.5667 7.63023 11.6306 7.49049 12.4499 7.32437C12.7812 6.96902 12.9042 6.5522 13.9199 6.1042L14.0644 6.30541C15.0139 5.92848 14.9332 5.58752 16.1621 5.33834C18.35 4.98692 20.5403 4.70417 22.2571 4.64422L22.3329 4.84783C23.2089 4.33596 25.4184 4.60258 26.6545 4.55941C28.729 4.8995 31.3457 5.01439 32.2624 5.66993C34.1333 6.08588 35.7982 6.50903 37.4727 7.20686C39.1448 7.83602 40.7554 8.67359 42.4419 9.71478L41.6841 9.67249C42.378 9.85452 41.9731 10.0749 42.6032 10.3967C42.3165 10.0629 42.5936 10.122 42.9417 10.2474C43.2899 10.3727 43.7802 10.6306 44.0573 10.6897C45.3366 11.8826 47.2338 13.054 48.5035 13.9722L48.3734 14.183C49.8443 14.9567 50.8656 16.6399 51.9508 18.1834C52.0267 18.387 52.0411 18.799 52.4012 19.2677C53.3179 19.9233 53.6094 20.3944 54.6139 21.5969C54.9054 22.068 55.2728 22.7427 55.5715 23.4199C55.8701 24.097 56.1688 24.7741 56.3277 25.3874C58.5884 29.0899 59.4949 33.3899 60.6074 37.6826L60.4133 38.0332C61.1033 40.0717 61.3932 42.468 61.6097 44.7294C61.8262 46.9907 61.8367 49.2593 62.0364 51.04L61.6124 50.711C61.5134 51.8145 61.7722 53.3181 62.1059 53.0314C62.0094 54.2036 62.2753 55.9132 61.8873 56.6143C61.7907 57.7865 62.0063 58.054 61.9712 59.0178C61.572 61.3695 61.5321 62.1959 61.2655 64.4054L61.3837 63.8512C61.3054 63.5789 61.1657 63.5151 61.0475 64.0692C61.0763 64.8933 60.3952 67.0485 61.0579 66.3378C60.313 68.6327 60.0113 71.806 58.8472 73.9093C59.0484 73.7648 58.8616 74.3213 58.8712 74.596C58.1166 76.6163 56.8767 78.516 56.1764 80.1218C55.9113 80.4061 56.2235 79.5013 55.7692 80.2735C55.5113 80.7638 55.9113 80.4061 55.6558 80.965C54.7472 82.5094 53.4903 83.9284 52.0842 85.0088C50.6094 86.0916 48.9877 86.9046 47.4275 87.5091L46.3407 87.8908L45.1805 88.1376C44.7708 88.2207 44.4275 88.2326 44.0179 88.3157C43.6059 88.3301 43.2648 88.4108 42.8504 88.3565C41.271 88.4116 39.7482 88.121 38.358 87.6883C36.8991 87.258 35.568 86.5481 34.3032 85.7672C33.1046 84.9153 31.9722 83.9922 30.9748 82.9957L31.1122 82.9909C30.3376 82.468 29.6836 81.4595 29.1693 80.5148C28.655 79.5702 28.2781 78.6208 27.7072 78.022C27.6217 77.5437 27.2352 76.3196 27.5195 76.5847C27.1521 75.9099 26.9764 74.816 26.938 73.7172C26.9188 73.1679 26.8972 72.5498 26.8781 72.0005C26.8685 71.7258 26.8589 71.4511 26.8469 71.1077C26.8373 70.833 26.8277 70.5584 26.8181 70.2837C26.8253 70.4897 26.8301 70.627 26.8373 70.833C27.175 68.6898 27.3139 66.7598 28.3407 64.6613C28.2792 64.8697 28.1563 65.2866 28.2297 65.4215C28.4924 65.0686 28.5419 64.5168 28.6648 64.1C28.7854 63.6145 28.9108 63.2663 29.2493 63.117C29.4409 62.6978 29.1663 62.7074 29.0386 62.9868C30.2003 60.8149 31.7078 58.6996 33.4995 56.8494C35.2913 54.9991 37.4385 53.4803 39.7349 52.3C41.5012 51.6883 41.577 51.8919 41.6505 52.0269C41.6553 52.1642 41.5204 52.2377 42.8036 51.5741C43.0783 51.5645 42.9313 51.2946 43.0047 51.4295C43.4783 51.2067 43.959 51.19 44.3734 51.2442C44.7878 51.2985 45.1312 51.2865 45.4674 51.0685C45.1144 50.8058 45.9385 50.7771 45.9313 50.571C46.4806 50.5519 46.8903 50.4688 47.3023 50.4544C47.6457 50.4424 47.989 50.4304 48.2637 50.4208C48.8818 50.3992 49.3625 50.3825 50.248 50.1453L50.1178 50.3561C52.0901 49.7372 54.4393 50.0677 56.2152 49.7306C61.804 50.2918 67.0239 52.1034 71.8486 54.4101C76.6732 56.7168 81.1713 59.5162 85.4067 62.6685C93.7426 69.0467 101.148 76.3512 107.162 85.1481C108.274 87.447 108.347 87.5819 110.003 89.7242C109.864 89.6603 109.79 89.5254 109.797 89.7314C110.207 89.6484 110.885 91.3436 111.299 91.3978C113.342 94.7643 115.169 97.8632 116.947 101.514C116.653 100.974 116.234 100.783 116.601 101.457L117.172 102.056L117.108 102.196C117.4 102.667 117.826 103.065 117.669 102.52C120.028 107.044 121.775 111.796 123.181 116.629C124.588 121.461 125.651 126.306 126.51 131.226C126.619 132.391 126.807 133.828 127.063 135.263C127.251 136.701 127.51 138.204 127.69 139.435C127.825 143.281 127.743 146.859 127.596 150.508C127.448 154.157 127.161 157.743 126.883 161.603C126.883 161.603 126.668 161.335 126.506 160.653C126.823 159.886 126.719 158.858 126.732 157.276Z" fill="#99D6CC"></path><path d="M2.03041 12.1573C2.37375 12.1453 3.11231 11.6382 2.72188 12.2707C2.51348 12.2092 2.0376 12.3633 2.03041 12.1573Z" fill="#99D6CC"></path><path d="M23.823 6.17091C23.8206 6.10224 24.1687 6.22759 24.2398 6.29386C23.9651 6.30345 23.6952 6.45039 23.4868 6.38891C23.7615 6.37932 23.6881 6.24437 23.823 6.17091Z" fill="#99D6CC"></path><path d="M29.4804 6.72964C29.3479 6.87178 28.1781 6.84388 27.4179 6.73291C28.107 6.7776 28.7913 6.68495 29.4804 6.72964Z" fill="#99D6CC"></path><path d="M34.4281 8.61951C34.7811 8.88221 34.6461 8.95567 34.0871 8.70017C34.0847 8.6315 34.2931 8.69298 34.4281 8.61951Z" fill="#99D6CC"></path><path d="M34.9015 8.39675C35.3183 8.5197 35.4629 8.72092 35.6737 8.85107C35.6689 8.71373 34.634 8.61236 34.9015 8.39675Z" fill="#99D6CC"></path><path d="M44.5278 14.3173C44.7386 14.4475 45.3 14.7716 45.3782 15.0439C45.2313 14.774 44.2531 14.3269 44.5278 14.3173Z" fill="#99D6CC"></path><path d="M48.5644 17.6828C48.6379 17.8178 48.709 17.8841 48.8511 18.0166C48.9981 18.2865 48.7186 18.1587 48.5053 17.9599L48.5644 17.6828Z" fill="#99D6CC"></path><path d="M30.2934 73.3251C30.3006 73.5311 30.3741 73.666 30.45 73.8696L30.3102 73.8058C30.303 73.5997 30.2982 73.4624 30.2934 73.3251Z" fill="#99D6CC"></path><path d="M60.1903 53.3046C60.8108 53.3517 60.5433 53.5673 60.6119 53.5649C60.1288 53.513 60.8843 53.4866 60.1903 53.3046Z" fill="#99D6CC"></path><path d="M81.6322 62.8691L81.4924 62.8052L81.7576 62.521L81.6322 62.8691Z" fill="#99D6CC"></path><path d="M113.31 147.019C113.171 146.955 113.183 147.299 113.173 147.024C113.239 146.953 113.377 146.948 113.31 147.019Z" fill="#99D6CC"></path><path d="M138.02 151.726C138.26 152.68 137.161 152.718 137.188 153.474C137.19 153.542 136.832 153.142 136.84 153.348C136.939 154.239 136.061 154.682 135.244 154.917L135.171 154.782C135.036 154.855 135.256 155.26 135.121 155.333C135.05 155.267 135.048 155.198 134.91 155.203C135.124 155.402 134.851 155.48 134.996 155.681C134.858 155.686 134.716 155.554 134.577 155.49L134.792 155.757C135.226 156.361 134.395 156.184 134.48 156.662C134.409 156.596 134.407 156.527 134.338 156.53C134.362 157.216 133.964 157.643 133.709 158.202C133.638 158.135 133.496 158.003 133.356 157.939C133.569 158.138 133.576 158.344 133.512 158.483C133.233 158.356 133.595 158.893 133.321 158.903L133.25 158.836C133.465 159.104 132.977 158.915 133.262 159.18L132.985 159.121C133.34 159.452 132.71 159.13 132.786 159.334L132.857 159.4C132.862 159.538 132.653 159.476 132.658 159.613L132.589 159.616C132.53 159.893 132.253 159.834 132.604 160.028C132.324 159.9 132.594 159.753 132.246 159.628C132.137 160.457 131.676 161.023 131.283 161.587C131.146 161.591 131.077 161.594 130.937 161.53C130.94 161.599 130.81 161.809 130.952 161.942L130.743 161.88C130.537 161.888 130.961 162.217 130.755 162.224C130.684 162.158 130.611 162.023 130.471 161.959C130.618 162.229 130.483 162.302 130.49 162.508C130.419 162.442 130.419 162.442 130.348 162.376C130.497 162.714 130.149 162.589 130.225 162.792L130.083 162.66C129.742 162.74 130.436 162.922 130.164 163.001C130.161 162.932 130.09 162.866 130.021 162.868C130.239 163.204 129.972 163.42 129.979 163.626L129.908 163.56C129.847 163.768 129.643 163.844 129.653 164.119C129.515 164.123 129.231 163.858 129.17 164.067C129.52 164.261 129.115 164.481 129.601 164.602C129.468 164.744 129.198 164.891 129.203 165.028C129.13 164.893 128.715 164.839 128.779 164.699L128.502 164.64C128.36 164.508 128.637 164.567 128.428 164.505C128.431 164.574 128.44 164.849 128.372 164.851C128.519 165.121 128.808 165.523 128.68 165.803C128.604 165.599 128.327 165.54 128.322 165.403C128.469 165.673 128.55 166.014 128.699 166.352C128.633 166.423 128.484 166.085 128.491 166.291C128.562 166.357 128.567 166.494 128.64 166.629C128.572 166.632 128.52 167.115 128.231 166.712C128.157 166.577 128.223 166.506 128.152 166.44C128.088 166.58 128.162 166.715 128.098 166.854L128.096 166.786C128.027 166.788 128.044 167.269 128.186 167.401C128.252 167.33 128.039 167.132 128.179 167.195C128.259 167.536 128.2 167.813 128.07 168.024C128.065 167.887 128.061 167.75 127.985 167.546C128.006 168.164 127.883 168.581 127.763 169.066C127.841 169.339 127.741 168.448 127.746 168.586C127.606 168.522 127.549 168.868 127.49 169.145C127.431 169.422 127.372 169.699 127.228 169.498C127.223 169.36 127.313 169.976 127.24 169.841C127.176 169.981 127.088 169.434 127.098 169.708C127.088 169.434 127.036 169.917 126.975 170.125C126.984 170.4 126.97 169.988 127.034 169.848C126.975 170.125 126.856 170.679 126.662 171.03C126.589 170.895 126.513 170.691 126.435 170.419C126.442 170.625 126.248 170.976 126.243 170.838L126.298 170.424C126.286 170.08 126.151 170.154 126.205 169.74C126.143 169.948 126.214 170.014 126.352 170.009C126.42 170.007 126.558 170.002 126.425 170.144C126.408 169.664 126.234 170.564 126.283 170.012C126.21 169.877 126.084 170.225 125.994 169.609C125.999 169.747 126.115 169.124 126.044 169.058C125.901 168.925 125.98 169.197 125.84 169.133L125.774 169.205C125.719 169.619 125.695 168.932 125.646 169.484C125.703 169.138 125.433 169.285 125.551 168.731L125.674 168.314C125.603 168.248 125.48 168.665 125.347 168.807C125.345 168.738 125.34 168.601 125.406 168.53C125.224 169.224 125.328 168.258 125.065 168.61C125.049 168.13 124.769 168.002 124.892 167.585C124.755 167.59 124.549 167.597 124.47 167.325C124.539 167.323 124.541 167.391 124.605 167.251C124.596 166.977 124.532 167.116 124.461 167.05C124.527 166.979 124.513 166.567 124.572 166.29C124.366 166.297 124.236 166.508 124.103 166.65C124.231 166.371 124.091 166.307 124.02 166.241C123.88 166.177 123.741 166.113 123.871 165.902C123.939 165.9 124.216 165.959 124.209 165.753C124.538 165.329 123.795 165.698 123.851 165.353C123.717 165.426 123.65 165.497 123.515 165.571C123.645 165.36 123.167 165.445 123.572 165.225C123.435 165.23 123.562 164.95 123.226 165.168C123.349 164.751 122.658 164.638 123.19 164.138C123.122 164.14 123.117 164.003 122.984 164.145C122.852 164.287 123.19 164.138 123.058 164.28C123.058 164.28 122.92 164.285 122.854 164.356C122.918 164.216 122.847 164.15 123.188 164.069C123.316 163.79 122.506 164.231 122.494 163.887C122.629 163.814 122.695 163.743 122.627 163.745L122.283 163.757C122.276 163.551 122.548 163.473 122.818 163.326C122.747 163.26 122.676 163.193 122.472 163.269L122.737 162.985C122.539 163.198 122.531 162.992 122.463 162.995L122.531 162.992C122.598 162.921 122.527 162.855 122.458 162.857C122.323 162.931 122.328 163.068 122.33 163.137C122.193 163.142 122.19 163.073 122.053 163.078C122.323 162.931 122.115 162.869 122.112 162.801C122.11 162.732 121.838 162.81 121.838 162.81C121.972 162.737 121.764 162.675 121.97 162.668C122.039 162.666 121.906 162.808 122.044 162.803C122.11 162.732 122.311 162.587 122.105 162.595C121.968 162.599 121.634 162.886 121.695 162.678C121.764 162.675 121.899 162.602 121.968 162.599L122.029 162.391L121.828 162.536C121.894 162.464 121.894 162.464 121.894 162.464C121.622 162.543 121.683 162.334 121.411 162.413C121.34 162.346 121.473 162.204 121.47 162.136C121.534 161.996 121.394 161.932 121.188 161.939L121.257 161.937C121.255 161.868 121.184 161.802 120.978 161.809C121.039 161.601 121.716 161.302 121.441 161.311C121.368 161.176 120.963 161.397 120.828 161.47C120.819 161.196 120.407 161.21 120.598 160.791C120.53 160.793 120.463 160.864 120.395 160.867C120.314 160.526 119.76 160.408 120.018 159.917C120.155 159.913 120.219 159.773 120.354 159.699C120.15 159.775 120.484 159.489 120.148 159.706C119.947 159.851 119.878 159.853 119.814 159.993C119.603 159.863 119.459 159.662 119.589 159.451C119.523 159.522 119.454 159.524 119.385 159.527C119.724 159.378 119.648 159.174 119.511 159.179L119.307 159.255L119.437 159.044C119.368 159.046 119.032 159.264 119.162 159.053C119.229 158.982 119.297 158.98 119.364 158.909C119.158 158.916 118.814 158.928 118.876 158.72L119.072 158.438C119.004 158.44 118.797 158.447 118.802 158.585C118.861 158.308 118.788 158.173 118.987 157.959C118.231 157.986 117.942 157.583 117.724 157.247L117.859 157.174C117.921 156.965 117.587 157.252 117.653 157.181C117.788 157.107 117.85 156.899 118.056 156.892C118.117 156.683 117.712 156.904 117.573 156.84C117.369 156.916 117.71 156.835 117.509 156.98C117.44 156.982 117.499 156.705 117.229 156.852C117.295 156.781 117.497 156.636 117.632 156.563L117.426 156.57C117.691 156.286 118.107 156.409 118.439 156.053L118.368 155.987C118.564 155.705 118.848 155.97 118.77 155.698C118.564 155.705 118.159 155.926 118.095 156.065C117.885 155.935 117.421 156.433 117.276 156.232C117.409 156.089 117.418 156.364 117.617 156.151C117.747 155.94 117.409 156.089 117.404 155.952C117.34 156.092 117.07 156.239 116.931 156.175C116.992 155.966 117.203 156.097 117.127 155.893C116.992 155.966 116.784 155.905 116.722 156.113C116.317 156.334 116.715 155.907 116.376 156.057C116.575 155.843 117.056 155.827 117.046 155.552C116.847 155.765 116.634 155.566 116.303 155.922C116.3 155.853 116.502 155.709 116.705 155.633C116.767 155.424 116.158 155.721 116.558 155.363L116.288 155.51C116.355 155.439 116.352 155.37 116.485 155.228C116.414 155.162 116.004 155.245 116.338 154.958C116.269 154.96 116.193 154.757 115.997 155.039C115.936 155.247 116.272 155.029 115.938 155.316C116.134 155.034 115.796 155.183 115.658 155.188L115.793 155.114C115.725 155.117 115.722 155.048 115.519 155.124C115.587 155.122 115.72 154.98 115.72 154.98L115.519 155.124C115.31 155.063 115.852 154.837 115.71 154.705L115.916 154.698C115.848 154.7 116.046 154.487 115.909 154.492C115.706 154.567 115.436 154.714 115.301 154.788C115.163 154.793 115.5 154.575 115.227 154.653L115.5 154.575C115.568 154.572 115.765 154.29 115.691 154.155C115.554 154.16 115.213 154.241 115.218 154.378C115.147 154.312 115.21 154.172 115.414 154.096C115.274 154.033 115.213 154.241 115.007 154.248C115.071 154.108 115.198 153.829 115.329 153.618L115.736 153.466L115.665 153.4C116.006 153.319 115.795 153.189 116.133 153.04C116.131 152.971 115.994 152.976 115.925 152.978C115.596 153.402 115.248 153.277 114.845 153.566C114.566 153.438 115.712 152.78 114.964 153.012C114.9 153.152 114.49 153.235 114.699 153.296C114.625 153.161 114.225 153.519 114.284 153.242C114.49 153.235 114.613 152.818 114.956 152.806C114.821 152.879 114.893 152.946 114.961 152.943C115.094 152.801 115.364 152.654 115.29 152.519C115.219 152.453 115.148 152.387 114.947 152.531C114.746 152.676 115.087 152.595 114.817 152.742C114.608 152.681 114.942 152.394 114.537 152.614C114.608 152.681 114.409 152.894 114.275 152.967L114.135 152.903L114.27 152.83C114.26 152.555 113.931 152.979 113.855 152.776L114.12 152.491C114.39 152.344 114.201 152.832 114.601 152.475C114.528 152.34 114.326 152.484 114.319 152.278C114.388 152.276 114.388 152.276 114.457 152.273C114.454 152.205 114.989 151.774 114.511 151.859C114.305 151.866 114.376 151.932 114.175 152.077C114.033 151.944 113.829 152.02 113.687 151.888C114.023 151.67 113.542 151.687 113.95 151.535C113.819 151.746 114.033 151.944 114.371 151.795C114.703 151.44 114.447 151.999 114.781 151.712C114.707 151.577 115.041 151.29 115.242 151.146C115.24 151.077 115.105 151.151 115.036 151.153C114.835 151.298 114.837 151.366 114.636 151.511C114.56 151.307 114.352 151.246 114.08 151.324C114.144 151.184 114.345 151.04 114.416 151.106C114.205 150.976 114.06 150.775 114.051 150.5C113.788 150.853 113.84 150.37 113.575 150.654C113.58 150.791 113.383 151.073 113.18 151.149C113.177 151.08 113.312 151.007 113.379 150.936C113.106 151.014 113.573 150.585 113.234 150.735C113.442 150.796 113.705 150.443 113.975 150.296C113.7 150.306 114.176 150.152 114.103 150.017C113.828 150.026 113.62 149.965 113.477 149.832C113.603 149.484 113.12 149.432 113.044 149.229C113.105 149.02 113.444 148.871 113.439 148.734C113.368 148.667 113.176 149.087 113.167 148.812L113.236 148.81C113.098 148.814 113.221 148.398 112.75 148.689L113.086 148.471C113.084 148.402 113.018 148.473 112.949 148.476C113.084 148.402 113.148 148.263 113.216 148.26C113.344 147.981 113.006 148.13 112.932 147.995L112.802 148.206C112.525 148.147 112.584 147.87 112.444 147.806L112.645 147.661L112.439 147.669C112.641 147.524 112.704 147.384 112.501 147.46L113.185 147.367C113.121 147.507 112.913 147.446 112.714 147.659C112.581 147.801 112.724 147.934 112.925 147.789C112.922 147.72 112.854 147.723 112.716 147.728C112.984 147.512 113.055 147.578 113.259 147.502C113.19 147.505 113.254 147.365 113.188 147.436C113.391 147.36 113.462 147.427 113.536 147.561C113.398 147.566 113.403 147.704 113.337 147.775C113.607 147.628 113.744 147.623 113.751 147.829C113.555 148.111 114.1 147.954 114.175 148.158C113.906 148.305 113.633 148.383 113.493 148.319C113.432 148.528 113.565 148.386 113.503 148.594C113.707 148.518 114.043 148.3 114.183 148.364L113.981 148.508C114.19 148.57 114.389 148.357 114.462 148.492C114.54 148.764 114.756 149.031 114.832 149.235L114.631 149.38C115.104 149.157 115.052 149.64 115.327 149.63C115.339 149.974 115.891 150.023 115.697 150.374C116.121 150.703 116.542 150.963 116.765 151.437L116.426 151.586C116.699 151.508 116.294 151.728 116.434 151.792C116.564 151.581 116.775 151.711 116.978 151.635C116.922 151.981 117.336 152.035 117.613 152.094L117.412 152.239C117.89 152.154 117.699 152.573 117.845 152.843C117.779 152.914 117.647 153.056 117.718 153.122C118.127 153.039 118.13 153.108 118.407 153.167C118.48 153.302 118.559 153.574 118.566 153.78C119.328 153.96 119.352 154.646 119.982 154.968L119.783 155.181C120.546 155.361 120.577 156.254 121.068 156.512L120.663 156.732C120.601 156.94 120.947 156.997 121.214 156.782C121.153 156.99 121.634 156.973 121.369 157.257C121.376 157.463 121.646 157.317 121.785 157.38C121.797 157.724 121.937 157.788 122.153 158.055L122.15 157.986C122.082 157.989 121.88 158.133 121.883 158.202C122.02 158.197 122.035 158.609 122.366 158.254C122.243 158.671 123.003 158.782 122.814 159.27C122.949 159.196 123.018 159.194 123.086 159.191C123.233 159.461 123.108 159.809 123.456 159.935C123.39 160.006 123.184 160.013 123.255 160.079C123.323 160.077 123.39 160.006 123.527 160.001C124.017 160.259 123.767 160.955 124.053 161.289C124.691 161.817 124.921 162.496 125.354 163.1L125.288 163.171C125.769 163.154 125.175 163.863 125.856 163.701C125.79 163.772 125.932 163.905 125.729 163.981C125.797 163.978 125.868 164.045 125.871 164.113C125.873 164.182 125.873 164.182 125.873 164.182C125.876 164.251 125.809 164.322 126.013 164.246C126.013 164.246 126.013 164.246 125.944 164.248C125.817 164.528 126.084 164.312 125.956 164.592C125.959 164.66 125.89 164.663 125.824 164.734C125.696 165.013 126.155 164.378 125.831 164.94L125.959 164.66C125.966 164.866 126.037 164.932 126.106 164.93C126.174 164.928 126.241 164.857 126.307 164.786C126.331 165.472 126.227 166.438 126.274 165.818C126.281 166.024 126.331 165.472 126.269 165.681C126.328 165.404 126.313 166.917 126.296 166.436C126.289 166.23 126.286 166.161 126.284 166.093C126.279 165.955 126.279 165.955 126.269 165.681C126.35 166.022 126.367 166.502 126.416 165.951L126.428 166.294C126.411 165.813 126.475 165.674 126.468 165.467C126.463 165.33 126.525 165.122 126.442 164.712C126.695 164.084 126.155 164.378 127.125 162.626C127.977 161.427 128.55 160.101 129.615 159.101C130.164 159.082 130.162 159.013 130.216 158.599C130.287 158.665 130.287 158.665 130.358 158.731C130.076 158.535 130.488 158.52 130.204 158.255C130.602 157.829 130.793 157.41 131.12 156.917C131.122 156.986 131.338 157.253 131.333 157.116L131.189 156.915L131.26 156.981C131.257 156.912 131.181 156.708 131.044 156.713C131.617 155.387 133.037 154.719 133.823 153.591C134.161 153.442 134.351 152.954 134.478 152.674C135.492 152.158 136.439 151.712 136.883 150.665C137.499 150.575 138.143 151.309 138.02 151.726Z" fill="#99D6CC"></path><path d="M113.453 147.152C113.32 147.294 113.325 147.431 113.053 147.51C113.256 147.434 113.32 147.294 113.453 147.152Z" fill="#99D6CC"></path><path d="M113.994 150.846C114.063 150.843 113.997 150.914 113.93 150.985C113.93 150.985 113.727 151.061 113.791 150.922C113.859 150.919 113.926 150.848 113.994 150.846Z" fill="#99D6CC"></path><path d="M114.43 151.518C114.295 151.592 114.087 151.53 114.016 151.464L114.43 151.518Z" fill="#99D6CC"></path><path d="M114.329 152.553C114.265 152.693 114.196 152.695 114.125 152.629C114.191 152.558 114.26 152.555 114.329 152.553Z" fill="#99D6CC"></path><path d="M114.665 152.335C114.736 152.401 114.67 152.472 114.603 152.543C114.67 152.472 114.395 152.482 114.665 152.335Z" fill="#99D6CC"></path><path d="M115.203 153.966C115.203 153.966 115.409 153.959 115.277 154.101C115.409 153.959 115 154.042 115.203 153.966Z" fill="#99D6CC"></path><path d="M115.907 154.423C115.912 154.56 115.774 154.565 115.774 154.565L115.907 154.423Z" fill="#99D6CC"></path><path d="M123.866 165.765L123.726 165.701L123.861 165.627L123.866 165.765Z" fill="#99D6CC"></path><path d="M128.229 168.637C128.219 168.363 128.302 168.772 128.371 168.77C128.307 168.91 128.293 168.498 128.229 168.637Z" fill="#99D6CC"></path></svg>