<svg width="218" height="54" viewBox="0 0 218 54" fill="none" xmlns="http://www.w3.org/2000/svg"><path d="M70.7891 8.07798e-05C62.703 -0.0105352 57.3478 4.26064 56.5944 10.6471C56.4186 12.1231 56.2376 13.5985 56.0514 15.0732H161.262C161.262 15.0732 161.46 13.5174 161.614 12.2686C162.405 5.83495 159.677 0.000867152 149.755 0.000867152V0.00165352C149.755 0.00165352 75.0519 0.004799 70.7891 8.07798e-05ZM6.5802 0.0020467L4.73366 15.0732H52.447L54.2865 0.0024399H6.57942H6.5802V0.0020467ZM166.743 0.0020467L164.901 15.0732H216.626C216.626 15.0732 216.688 14.5283 216.917 12.7542C218.176 2.86168 211.807 0.0020467 205.658 0.0020467H166.743ZM164.188 20.8118L160.157 53.7041L178.003 53.6978L182.037 20.8181L164.188 20.811V20.8118V20.8118ZM198.09 20.8118L194.053 53.7041L211.898 53.6978L215.932 20.8181L198.09 20.811V20.8118V20.8118ZM4.03758 20.8165L0 53.7056H47.7102L49.468 39.4377L19.5931 39.4346L20.3488 33.282H50.212L51.7407 20.8173H4.03994L4.03758 20.8165V20.8165ZM55.3514 20.8165C54.0424 29.4005 58.3303 33.2809 64.4075 33.2809C67.7129 33.2809 88.5467 33.2714 88.5467 33.2714L87.7933 39.4334L53.0724 39.4366L51.324 53.7045C51.324 53.7045 89.1242 53.717 90.6561 53.7045C91.9211 53.6132 100.764 53.371 103.774 46.1239C104.75 43.771 105.614 35.3349 105.855 33.5639C107.246 23.2782 100.139 20.8259 94.5422 20.8259C91.4565 20.8259 61.4442 20.8165 55.3514 20.8165V20.8165ZM110.893 20.8165L106.863 53.7056H124.699L127.21 33.282H149.613C155.967 33.282 159.382 29.859 160.016 25.2622C160.219 23.7831 160.402 22.3013 160.566 20.8173H110.893V20.8165V20.8165Z" fill="#10284B"></path></svg>