<svg width="35" height="37" viewBox="0 0 35 37" fill="none" xmlns="http://www.w3.org/2000/svg"><path d="M20.4306 35.926C20.4306 35.7576 20.4034 35.7015 20.4034 35.7015C20.4034 35.7015 20.3762 35.7295 20.3762 35.7576C20.3762 35.7857 20.3762 35.8137 20.3762 35.7857C20.3762 35.7576 20.3762 35.7015 20.3491 35.505C20.4034 35.5892 20.4849 35.7295 20.4306 35.926Z" fill="#381FD1"></path><path d="M24.9405 30.6213C25.7012 29.1899 27.2498 27.7584 28.092 26.2147C28.2007 26.0463 28.2007 26.3831 28.4452 25.9621C28.8256 25.2043 29.3961 24.2781 29.9938 23.3238C30.5915 22.3695 31.2164 21.3591 31.7054 20.461V20.6013C31.8956 20.2645 31.9228 19.7312 32.113 19.3664C32.1401 19.3664 32.1129 19.5067 32.1944 19.4506C32.1401 19.3102 32.4118 18.7208 32.3846 18.5243C32.4661 18.384 32.5476 18.4121 32.6563 18.2437L32.6291 17.963C32.5748 17.2613 33.091 16.4193 33.1182 15.465C33.1453 15.5212 33.1453 15.6053 33.1725 15.5492C33.2268 14.8195 33.3084 14.0055 33.3355 13.1635C33.3627 12.3215 33.3627 11.4514 33.254 10.6655C33.3083 10.7217 33.3898 10.7778 33.417 10.6936C33.3083 10.6094 33.1997 10.1323 33.1182 9.71125C33.1725 9.59898 33.091 9.43057 33.0366 9.20603C32.9551 8.98149 32.8736 8.7289 32.8465 8.47629L32.8736 8.50435C32.6563 8.16755 32.8193 7.94301 32.5748 7.6904L32.602 7.4378C32.4933 7.38167 32.4661 7.24133 32.4661 7.10099C32.4389 6.93259 32.4389 6.76419 32.3303 6.65192L32.3031 6.67999C32.1673 6.42738 32.1944 6.25898 32.0586 6.00637V5.97831C31.7597 5.41696 31.6511 5.05209 31.5424 5.13629C31.5424 4.88369 31.8684 5.64151 31.8413 5.24857C31.2979 4.35042 30.6458 3.5084 29.8851 2.80672C29.1244 2.10504 28.2279 1.54369 27.2498 1.26302C27.1955 1.23496 27.1411 1.20689 27.114 1.17882C27.0596 1.15076 27.0325 1.15075 27.0053 1.12269C26.951 1.09462 26.8966 1.06656 26.8695 1.03849C26.7608 1.03849 26.5706 1.01042 26.3804 0.982351C26.1902 0.982351 26.0001 0.982353 25.9186 1.01042C26.0001 1.01042 25.7827 0.92622 25.674 0.898153C25.2937 0.842019 25.2665 1.06655 24.859 1.01042C25.022 0.954286 25.0763 0.926219 25.022 0.870084C24.859 0.926219 24.6416 0.982355 24.4515 1.03849C24.2341 1.09462 24.0168 1.12268 23.8266 1.20689C23.881 1.17882 23.9896 1.12269 23.9625 1.09462C23.7451 1.20689 23.5549 1.26302 23.3647 1.29109C23.1746 1.31916 22.9844 1.40336 22.8214 1.48756L22.9301 1.34722C22.3052 1.48756 22.7942 1.57177 22.278 1.74017C22.3867 1.65597 22.3324 1.65597 22.3324 1.59983C22.115 1.7963 21.8162 1.93664 21.5445 2.10504C21.4086 2.18924 21.2456 2.27344 21.1098 2.35764C20.9739 2.44184 20.8653 2.52604 20.7566 2.61024C20.7838 2.58218 20.7566 2.58218 20.7566 2.58218C20.6479 2.66639 20.5121 2.75058 20.4034 2.80672C20.2947 2.89092 20.1589 2.97512 20.0502 3.05932C19.9415 3.14352 19.8057 3.22772 19.697 3.33999C19.5883 3.45226 19.4797 3.53646 19.371 3.64873C19.1808 3.761 19.2895 3.45226 18.882 3.87327C19.0178 3.98554 18.2028 4.63109 18.5831 4.51882C18.3929 4.68722 18.1484 4.91175 17.9311 5.13629C17.7137 5.36083 17.5507 5.58537 17.4421 5.7257C17.5507 5.50116 17.116 5.78184 17.3877 5.44503L17.116 5.6415C17.0889 5.5573 17.3605 5.38889 17.2247 5.41696C17.0889 5.58536 16.7629 6.14671 16.627 6.28705C16.464 6.67999 16.4097 7.07293 16.0837 7.63428C16.1923 7.3536 15.8391 7.69041 15.9206 7.49394C15.8391 7.80268 15.7848 8.11141 15.7305 8.42015C15.6218 8.61662 15.5946 8.39209 15.4859 8.70082C15.5403 8.70082 15.4859 8.84116 15.4859 8.95343C15.4316 9.00956 15.1327 9.76737 14.9426 9.76737C14.8339 9.82351 15.0512 9.43057 14.9154 9.62704C14.7524 9.99191 14.8067 10.02 14.6437 10.3849H14.6166C14.4807 10.6094 14.3992 11.1146 14.5894 10.8901C14.6709 10.7217 14.4807 10.9181 14.6166 10.6936C14.6437 10.8901 14.5079 11.3391 14.372 11.704C14.3992 11.5637 14.3449 11.5637 14.3177 11.5075C14.2634 12.0408 14.1547 12.6022 14.0732 13.1635C14.1547 13.1916 13.9917 12.9109 14.046 12.8548C13.9102 13.2196 13.883 13.5845 13.883 13.9494C13.883 14.3143 13.883 14.6511 13.8287 14.9598C13.8015 14.8475 13.9374 14.9037 13.9102 14.9037C13.9102 15.2405 13.8015 15.2405 13.883 15.465C13.8287 15.4931 13.9373 15.7457 14.0188 15.9702C14.1003 16.0825 13.9917 16.0264 13.9645 15.8299C14.0188 15.9702 14.1547 16.3632 14.3449 16.7561C14.5351 17.149 14.8339 17.4859 15.0512 17.7385C15.0784 17.7104 15.4588 17.8507 15.5946 17.8788L15.5131 17.963C15.5674 18.0191 15.6761 18.0753 15.7848 18.1033C15.8934 18.1314 15.975 18.1595 15.975 18.1875C16.0565 18.1875 16.0293 18.1595 15.9206 18.1314C15.8663 18.1314 15.812 18.1033 15.7576 18.1033C15.7033 18.0753 15.6218 18.0472 15.5403 18.0472C15.4044 18.0191 15.2686 17.9349 15.1871 17.9069C15.1056 17.8788 15.1056 17.8507 15.2142 17.9069C15.2414 17.963 15.4044 18.0191 15.5131 18.0472C15.6489 18.0753 15.7305 18.0753 15.6761 18.1314C15.7576 18.1595 15.812 18.1595 15.8935 18.1595C15.975 18.1595 16.0293 18.1875 16.1108 18.1595C16.2467 18.1314 16.3825 18.1595 16.5455 18.1875C16.464 18.1875 16.301 18.3559 16.5455 18.3279C16.6542 18.2998 16.7085 18.2998 16.7629 18.2998C16.79 18.2717 16.8172 18.2717 16.8172 18.2717C16.8444 18.2437 16.8443 18.2437 17.0073 18.1595C17.0889 18.1314 17.1432 18.0753 17.1975 18.0472C17.1975 17.9911 17.279 17.963 17.3605 17.9349C17.4421 17.9069 17.4692 17.8788 17.3877 17.8788C17.442 17.9069 17.5507 17.7946 17.6866 17.7385C17.8224 17.6543 17.9311 17.5701 17.9582 17.6543L17.9854 17.7946C18.1484 17.6543 18.1756 17.4859 18.2299 17.3175C18.2571 17.3175 18.3114 17.2894 18.3114 17.3175C18.2571 17.2332 18.3386 17.149 18.4473 17.0368C18.5016 16.9806 18.556 16.9245 18.6103 16.8684C18.6375 16.8122 18.6918 16.728 18.6918 16.6719C18.9907 16.3632 19.208 15.7457 19.371 15.6054C19.4253 15.2685 19.371 14.9879 19.4525 14.623C19.4797 14.7072 19.4525 14.7914 19.5069 14.8195C19.5884 14.5949 19.5069 14.5107 19.4797 14.3143C19.5069 14.3704 19.5612 13.8091 19.5612 13.5284C19.4525 13.1916 19.3438 13.3319 19.2895 13.3319C19.3167 13.2477 19.3167 13.1354 19.2895 13.0512C19.2623 12.939 19.208 12.8267 19.1537 12.7144C19.045 12.4899 18.9091 12.2654 18.9091 12.0408C18.9906 12.125 19.1808 12.4618 19.1265 12.1812C19.1537 11.8163 18.7461 11.6479 18.556 11.1707L18.4744 11.3672C18.4473 11.1146 18.0126 10.7778 18.1756 10.7217C18.0398 10.6094 17.8767 10.1884 17.7952 10.3287C17.4149 9.54284 16.464 8.75696 16.301 8.16755C16.1923 8.08335 16.0021 7.85881 16.0021 7.94301C16.0836 8.16755 16.2467 8.11141 16.2467 8.22368C16.1652 8.13948 16.1108 8.16755 16.1108 8.16755C15.975 7.94301 15.812 7.77461 16.0837 7.88688C15.7576 7.38167 15.486 7.63427 14.9969 7.04486C15.0513 7.0168 15.0513 6.96066 14.8882 6.82032L14.5079 6.62386C14.1819 6.28705 14.3992 6.31512 14.4536 6.23092C14.2362 6.09058 14.0188 5.86604 13.8558 5.86604L13.6928 5.5573C13.8015 5.78184 13.4755 5.4731 13.3668 5.41696L13.4755 5.4731C13.4755 5.41697 13.2038 5.24856 13.0679 5.16436C13.0679 5.24856 13.2853 5.44503 13.394 5.5573C13.2581 5.50116 13.1223 5.3889 12.9321 5.33276C13.0408 5.27663 12.6333 5.02402 12.4703 4.91176C12.2801 4.77142 12.1986 4.85563 12.1442 4.82756C12.1714 4.77142 11.8182 4.63109 12.0084 4.65915C12.0899 4.68722 12.1442 4.79949 12.2801 4.82756C12.1714 4.71529 12.2257 4.63109 11.9269 4.54689C11.6824 4.49075 11.8726 4.77142 11.5194 4.49075C11.628 4.51882 11.6824 4.49075 11.7639 4.49075L11.4107 4.23815L11.3564 4.32234C11.3292 4.26621 11.3564 4.29428 11.3292 4.26621C11.1662 4.32235 10.7315 4.04168 10.5956 4.12588C10.4055 4.06974 10.2153 3.92941 10.0251 3.84521H10.0523C9.83492 3.73294 9.50892 3.6768 9.31874 3.70487L9.3459 3.6768C9.21006 3.64873 8.91122 3.62067 8.74821 3.6768C8.42219 3.5926 8.66669 3.28386 8.28633 3.4242C8.20483 3.4242 8.12334 3.42419 8.06901 3.45226C8.01467 3.48033 7.96033 3.5084 7.93316 3.53647C7.87883 3.5926 7.85166 3.64873 7.93316 3.6768C7.79732 3.6768 7.63429 3.6768 7.49844 3.70487C7.3626 3.73294 7.1996 3.78907 7.06376 3.81714C6.76491 3.87327 6.49323 4.0136 6.22155 4.04167C6.16721 4.12587 6.22155 4.12587 6.08571 4.21008C5.70535 4.37848 5.32499 4.65915 4.99897 4.93983C4.67295 5.2205 4.3741 5.52923 4.04808 5.7257C4.18393 5.50116 3.99374 5.6415 3.9394 5.61344C3.8579 5.83797 3.6949 5.75377 3.74924 5.92218C3.83074 5.95024 3.85791 6.00637 4.04808 5.83797C3.88507 6.06251 3.6949 6.34318 3.50472 6.56772C3.31454 6.82032 3.15154 7.04486 3.04287 7.15713C3.15154 7.04486 3.12437 7.15713 3.07003 7.2694C2.96136 7.15713 2.74401 7.49393 2.66251 7.80267L2.71683 7.88688L2.55383 8.02721C2.52666 8.13948 2.66249 8.22368 2.44515 8.44822C2.41798 8.44822 2.36364 8.44822 2.33647 8.50435C2.28213 8.84116 2.2278 9.29024 2.03762 9.59898L1.84746 9.82351C1.82029 9.96385 1.82027 10.2445 1.92894 9.99192C1.68443 10.5252 1.60294 10.9181 1.46709 11.0865C1.46709 11.2269 1.46709 11.3672 1.46709 11.5075C1.46709 11.6479 1.46709 11.7882 1.46709 11.9566C1.46709 12.097 1.46709 12.2654 1.46709 12.4338C1.46709 12.518 1.46709 12.6022 1.46709 12.6583V12.9109C1.46709 13.2477 1.43993 13.5564 1.43993 13.8933C1.43993 14.202 1.43993 14.5388 1.43993 14.8195L1.38558 14.7914C1.35841 15.1282 1.52142 14.9598 1.49426 15.1843C1.41275 15.0721 1.3856 15.4369 1.27693 15.1843C1.24976 15.6615 1.43992 15.7738 1.49426 16.0544C1.57576 16.0825 1.41274 15.8299 1.52142 15.858C1.54859 15.9141 1.54861 16.5035 1.68445 16.5596C1.65729 16.6719 1.54859 16.6158 1.49426 16.5596L1.60294 16.8403C1.52143 17.2052 1.22257 16.1106 1.08673 16.5035L1.14109 16.7561C1.05958 17.0368 0.896554 16.0825 0.950891 16.7561C1.05956 17.0368 1.27693 17.2332 1.27693 16.9806C1.41277 17.5701 1.6301 17.2052 1.73878 17.8227C1.71161 18.0191 1.60295 17.3175 1.54861 17.4578C1.52144 17.7665 1.73877 18.0472 1.76594 18.2998C1.73877 17.9911 1.92896 18.2156 2.01046 18.384C2.03763 18.7208 1.84746 18.2156 1.95614 18.6647C2.03764 18.7208 2.20063 19.1137 2.17346 18.7489C2.39081 18.8611 2.25497 19.226 2.44515 19.4225C2.39081 19.5909 2.03763 19.0576 2.1463 19.5628C2.22781 19.4506 2.49949 20.0961 2.55383 19.7874C2.581 19.9838 2.4995 20.04 2.39082 19.9277C2.39082 20.068 2.49948 20.2084 2.58099 20.3487C2.66249 20.461 2.71685 20.5732 2.63534 20.6574L2.77119 20.7136C2.77119 20.7978 2.79835 20.9381 2.79835 21.1065C2.87985 21.3311 3.2602 21.7521 3.09719 21.8082C3.15153 21.8643 3.39604 22.3976 3.39604 22.145C3.31453 21.8082 3.15154 21.8082 3.20587 21.5837C3.20587 21.8643 3.45037 22.0327 3.55904 22.2011L3.50472 22.2573C3.58622 22.3695 3.69489 22.5941 3.80356 22.6221C3.72206 22.566 3.72207 22.6221 3.74924 22.7063L3.88508 22.7625C4.15676 23.1554 3.7764 22.959 4.04808 23.3519L3.80356 23.0712C3.8579 23.1274 3.85792 23.3238 3.99376 23.4922C4.1296 23.5203 4.29261 23.6045 4.40128 23.6326C4.56429 23.829 4.3741 23.801 4.59145 23.9694L4.31977 23.7448C4.26543 23.7168 4.31975 24.0255 4.50993 24.3342C4.67294 24.5026 4.97182 24.7272 4.80881 24.3904C4.91748 24.5307 4.99897 24.7833 4.86313 24.6991C5.13482 25.0079 4.91746 24.5868 5.16198 24.8395C5.18915 24.9237 5.24348 25.064 5.29782 25.2324C5.35216 25.4008 5.43368 25.5692 5.48802 25.6815L5.13482 25.485L5.29782 25.6815C4.99897 25.5131 5.325 25.8779 5.10765 25.8218C5.18916 25.9621 5.35218 26.1025 5.48802 26.2147C5.35218 25.6815 6.05853 26.4673 6.11287 26.2147C6.57473 26.6919 6.03138 26.8603 6.71059 27.169C6.68342 27.0568 7.00942 27.1971 6.6834 26.9164C6.95508 27.2252 7.00943 27.0006 7.28112 27.3936C6.98227 27.169 7.41694 27.8146 6.95508 27.5058C7.03658 27.4778 6.7921 27.2532 6.71059 27.1971C6.76493 27.3655 6.54758 27.3094 6.84643 27.6181C7.03661 27.7865 7.2811 28.0672 7.33544 27.9549C7.38978 27.8707 7.06378 27.6742 7.25396 27.7023C7.63431 28.0391 7.57996 28.2356 7.87881 28.2356C7.63429 28.011 7.66147 27.8707 7.7158 27.8146L8.01465 28.0391H7.90597C8.31349 28.5163 8.12333 28.0672 8.53085 28.4882L8.63953 28.7969C8.44936 28.7969 8.04182 28.1794 7.98749 28.3759C8.25917 28.6566 8.42219 28.6566 8.63953 28.9373C8.55803 28.9092 8.47651 28.825 8.42217 28.7969C8.53085 28.8811 8.44935 29.1899 8.93838 29.4425C9.18289 29.5828 9.04704 29.4425 9.10138 29.3863C9.59041 29.7793 9.75341 29.8354 10.0794 30.088C9.91642 30.1442 10.6228 30.5371 10.1881 30.3967C10.1338 30.2845 9.94361 30.1161 9.72626 29.9477C9.50892 29.7793 9.29158 29.6109 9.15574 29.6109C9.21007 29.8915 8.80252 29.2741 8.58518 29.3021C8.93836 29.6389 8.8297 29.7512 8.80254 29.8915C8.91121 30.0038 9.04704 30.0319 9.10138 30.088C9.21005 30.0319 9.07421 29.9196 9.12854 29.8354C9.53607 30.2283 9.97078 30.509 10.2696 30.6213C10.3783 30.7897 10.2696 30.8178 10.1066 30.7055C10.3783 30.902 10.65 31.1265 10.9217 31.323C11.1934 31.5475 11.4379 31.744 11.6824 31.9404C11.465 31.5475 12.2801 32.3334 12.1442 32.0247C11.8997 31.8001 11.7367 31.5194 11.9269 31.5475C12.0899 31.6878 11.8726 31.6036 11.9269 31.6878C12.1986 31.772 12.1714 32.0527 12.4703 32.0808C11.9541 31.772 12.2529 32.1931 12.0899 32.2492C12.4974 32.4457 12.0084 32.3334 12.3616 32.586C12.7691 32.7825 13.231 33.0351 13.6385 33.2877C14.0732 33.7367 14.9154 34.1297 15.3773 34.4104C15.5946 34.6349 15.3501 34.663 15.5946 34.8314C15.8935 35.0278 15.4588 34.5507 15.8663 34.8875H15.812C15.975 34.9436 16.5998 35.505 16.8443 35.3927L16.627 35.4488C16.7085 35.505 16.8172 35.5331 16.8715 35.5611C16.8443 35.6173 16.9259 35.7295 16.7629 35.6734C16.9802 35.9541 17.3605 36.0102 17.6866 36.2067L17.5236 36.0102C17.7952 36.1225 18.0126 36.2628 18.2299 36.4031C18.4473 36.5154 18.6646 36.6277 18.9363 36.6838L18.9091 36.768C19.0178 36.768 19.1265 36.768 19.2352 36.7399C19.208 36.7961 19.2351 36.8241 19.3167 36.8241C19.3982 36.8522 19.5612 36.7961 19.6155 36.7119C19.534 36.7961 19.4253 36.8522 19.3167 36.9083C19.1265 36.9645 18.9092 37.0206 18.6918 36.9925C18.556 36.9364 18.6375 36.9083 18.7461 36.9083C18.8276 36.9083 18.9363 36.8803 18.8548 36.7961C18.8005 36.7399 18.6374 36.6838 18.5016 36.6277C18.3386 36.5715 18.2028 36.5154 18.1213 36.5435C18.3115 36.6557 18.3386 36.6277 18.4744 36.6557C18.5016 36.8241 18.2028 36.6838 18.0126 36.6838C18.1213 36.7399 18.2571 36.8522 18.2843 36.8241C18.0398 36.7961 17.8496 36.6838 17.5236 36.5154C17.7681 36.5996 17.442 36.3751 17.5507 36.3751C17.4692 36.4593 17.1432 36.3189 16.79 36.0663C16.5727 35.7857 16.0293 35.7015 15.5946 35.3927C15.8391 35.3927 16.1108 35.4488 16.4097 35.5611C16.1651 35.3366 16.1108 35.3646 15.8391 35.1401C15.649 35.1401 15.4859 35.1962 15.1056 35.0278L15.1328 34.9436C14.7796 34.7752 14.7252 34.8875 14.3177 34.6068C13.6385 34.1016 12.9049 33.6245 12.3887 33.2315L12.4159 33.1473C12.0084 33.1193 11.4107 32.5018 10.976 32.2773C10.6771 31.9966 10.2968 31.744 9.97079 31.4914C9.64477 31.2388 9.37306 31.0423 9.26438 30.8458C8.09615 29.9477 7.11809 29.1337 6.11287 27.983L6.38455 28.0672C6.14004 27.9268 6.33021 27.8707 6.11287 27.7023C6.24871 28.011 5.75967 27.5339 5.59666 27.4216C5.21631 26.8322 4.59146 26.2147 4.15676 25.7937L4.21109 25.7095C3.96657 25.5131 3.77641 25.2324 3.58624 24.9237C3.42323 24.6149 3.23305 24.25 3.04287 23.9413C3.0157 23.8571 3.04287 23.6887 2.90703 23.4922C2.58101 23.1835 2.47232 23.0151 2.1463 22.4818C2.0648 22.2853 1.92897 22.0047 1.8203 21.724C1.71162 21.4433 1.63011 21.1627 1.57577 20.9381C0.760726 19.4225 0.434693 17.6823 0.135842 15.9141L0.21736 15.7738C0.135855 15.3527 0.05433 14.9037 0.0271617 14.4265C0.0271617 14.202 0 13.9494 0 13.7248C0 13.5003 0.0271617 13.2477 0.0271617 13.0232C0.0814983 12.0689 0.244528 11.1988 0.353201 10.441L0.489043 10.6375C0.516211 10.5252 0.543359 10.4129 0.570528 10.3007C0.597696 10.1884 0.624884 10.0761 0.624884 9.96385C0.652052 9.76738 0.624871 9.62704 0.543366 9.68318C0.652039 9.45864 0.679214 9.17796 0.787887 8.92536C0.869392 8.67275 0.978059 8.42016 1.08673 8.33596C1.27691 7.88688 1.24976 7.7746 1.41277 7.38166C1.65729 6.96066 1.82028 6.67999 2.01046 6.39931C2.17347 6.11864 2.36364 5.86604 2.60815 5.4731C2.55381 5.52923 2.49948 5.58537 2.47231 5.6415C2.44514 5.75377 2.4995 5.80991 2.63534 5.61344C2.79835 5.3047 3.47755 4.68722 3.09719 4.79949C3.47755 4.46268 3.85791 4.06974 4.31977 3.70487C4.78163 3.34 5.27067 3.03125 5.7597 2.91898C5.65103 2.89092 5.89552 2.77865 5.97703 2.72252C6.38455 2.55412 6.84643 2.49798 7.28112 2.41378C7.49846 2.38571 7.71579 2.38571 7.90597 2.35764C8.09615 2.32957 8.28635 2.32958 8.47653 2.30151C8.61237 2.32958 8.25918 2.38571 8.61237 2.41378C8.82972 2.38571 8.61237 2.32957 8.88405 2.32957C9.23724 2.35764 9.5904 2.38571 9.94359 2.46991C10.2968 2.55411 10.6228 2.69445 10.9488 2.80672C11.1118 2.86285 11.2477 2.94705 11.4107 3.03125C11.5465 3.11545 11.7095 3.17159 11.8454 3.25579C12.1171 3.4242 12.4159 3.56453 12.6604 3.73293C14.6165 4.77142 16.1923 6.45545 17.5236 7.99915H17.4692C18.0398 8.42015 18.3658 9.37444 18.882 9.68318C18.9363 9.85158 19.2352 10.2445 19.0722 10.1884C19.4797 10.6094 19.8057 11.6198 20.1861 12.3776C20.1589 12.2934 20.1317 12.2654 20.1045 12.1812C20.2132 12.6022 20.3219 12.9951 20.4034 13.4161C20.4849 13.8371 20.5392 14.2581 20.4849 14.7353C20.4849 14.623 20.4577 14.4546 20.4034 14.4265C20.3491 14.7633 20.5392 15.3527 20.2675 15.4931C20.2404 15.6896 20.3491 15.6615 20.3491 15.5492C20.2132 16.0544 20.0231 16.5596 19.7514 17.0087C19.4797 17.4578 19.1536 17.9069 18.7733 18.2717C18.3658 18.6366 17.9311 18.9734 17.3877 19.1699C16.8443 19.3663 16.2466 19.4786 15.6489 19.3664C15.2142 19.2541 15.0512 19.0857 14.9697 19.0295C14.8882 18.9453 14.8882 18.9173 14.9154 18.8892C14.9697 18.8331 14.9969 18.8892 14.4536 18.6085C14.3992 18.5243 14.3449 18.6366 14.372 18.5805C14.1547 18.4401 14.0732 18.2717 13.9917 18.1033C13.9102 17.9349 13.883 17.7946 13.72 17.6823C13.6928 17.8788 13.557 17.542 13.4755 17.5701C13.3668 17.3455 13.3125 17.149 13.2581 17.0087C13.231 16.8403 13.2038 16.728 13.1766 16.5877C13.1495 16.4754 13.1223 16.3351 13.0951 16.2228C13.068 16.0825 13.0408 15.9422 12.9865 15.7738L13.0679 15.8299C12.9049 15.4369 12.8778 14.9598 12.8506 14.5388C12.8506 14.0897 12.8506 13.6968 12.7963 13.3038C13.2038 11.0585 14.046 9.03763 15.1328 7.1852C15.4044 6.73612 15.7033 6.28704 16.0021 5.83797L16.4912 5.19243L17.0073 4.57495C17.7137 3.761 18.4745 3.00318 19.3438 2.32957C20.2132 1.68403 21.1369 1.12269 22.1422 0.701679C23.1474 0.280672 24.2341 0.0280672 25.348 0C25.9186 0 26.4891 0.0561361 27.0325 0.168405C27.3041 0.224539 27.5758 0.308739 27.8475 0.421008C27.9833 0.477142 28.1192 0.505209 28.255 0.561344L28.6354 0.729748C29.6678 1.26302 30.5372 2.02084 31.2435 2.91898C31.5152 3.39613 31.6239 3.64873 31.7869 3.90134C31.9499 4.15394 32.1129 4.40655 32.4118 4.88369C32.3575 4.85562 32.3303 4.79949 32.3303 4.88369C32.4933 4.85562 32.7106 5.58537 32.8736 5.6415C33.0367 6.03444 33.1725 6.39932 33.3083 6.76419C33.417 7.15713 33.5529 7.52201 33.6615 7.91495C33.7159 8.11142 33.7702 8.30788 33.7974 8.50435C33.8517 8.70082 33.8789 8.89729 33.9061 9.09376C33.9876 9.4867 34.0419 9.90771 34.0962 10.3287C34.0419 10.0761 33.906 9.93578 33.9604 10.2726C34.0147 10.3849 34.0419 10.4971 34.0962 10.5813L34.0691 10.6375C34.0962 10.862 34.1777 11.0865 34.2321 10.862C34.4494 12.967 34.1506 15.0721 33.6072 17.0648C33.0638 19.0576 32.2488 20.91 31.3251 22.6783C30.836 23.4922 30.2112 24.671 29.6678 25.5411C27.8475 27.9549 26.0272 29.9196 24.2069 32.3334C24.2341 32.1931 24.207 31.6317 24.9405 30.6213Z" fill="#381FD1"></path><path d="M20.1318 36.5994C19.9959 36.6556 19.6699 36.824 19.8601 36.5714C19.9144 36.5994 20.1046 36.5152 20.1318 36.5994Z" fill="#381FD1"></path><path d="M12.4159 32.2492C12.3888 32.2492 12.3344 32.137 12.3073 32.137C12.3888 32.1931 12.5246 32.1931 12.5789 32.2773C12.4974 32.1931 12.4703 32.2492 12.4159 32.2492Z" fill="#381FD1"></path><path d="M10.5956 30.8178C10.65 30.7897 11.0847 31.0423 11.302 31.2108L10.5956 30.8178Z" fill="#381FD1"></path><path d="M9.12851 29.246C9.01983 29.0776 9.07417 29.1057 9.26435 29.246C9.26435 29.2741 9.21002 29.246 9.12851 29.246Z" fill="#381FD1"></path><path d="M8.93832 29.2461C8.80249 29.1339 8.77531 29.0497 8.72098 28.9655C8.69381 28.9935 9.04699 29.2181 8.93832 29.2461Z" fill="#381FD1"></path><path d="M5.89566 25.7657C5.81415 25.6815 5.62396 25.5131 5.62396 25.4008C5.65113 25.5412 6.00433 25.7938 5.89566 25.7657Z" fill="#381FD1"></path><path d="M4.56433 24.1097C4.53717 24.0536 4.53716 24.0255 4.45566 23.9694C4.40133 23.8572 4.51 23.9414 4.59149 24.0256L4.56433 24.1097Z" fill="#381FD1"></path><path d="M18.6375 11.6197L18.5016 11.4232H18.556L18.6375 11.6197Z" fill="#381FD1"></path><path d="M14.3992 11.9566C14.4264 11.7321 14.5079 11.8163 14.535 11.7882C14.4807 11.9847 14.4807 11.6759 14.3992 11.9566Z" fill="#381FD1"></path><path d="M19.045 3.95734L19.0179 3.98541L18.9364 3.87314L19.045 3.95734Z" fill="#381FD1"></path></svg>