<svg width="72" height="72" viewBox="0 0 72 72" fill="none" xmlns="http://www.w3.org/2000/svg"><path d="M35.9999 6.48668C45.6124 6.48668 46.7509 6.52326 50.5469 6.69646C54.0569 6.85665 55.9631 7.44312 57.2318 7.93599C58.912 8.58906 60.1114 9.3693 61.3711 10.629C62.6308 11.8887 63.411 13.088 64.0639 14.7683C64.5569 16.037 65.1434 17.9431 65.3036 21.453C65.4768 25.2492 65.5134 26.3877 65.5134 36.0001C65.5134 45.6126 65.4768 46.7511 65.3036 50.5471C65.1434 54.0571 64.5569 55.9633 64.0639 57.232C63.411 58.9122 62.6308 60.1116 61.3711 61.3713C60.1114 62.631 58.912 63.4112 57.2318 64.0641C55.9631 64.5571 54.0569 65.1436 50.5469 65.3038C46.7515 65.477 45.613 65.5136 35.9999 65.5136C26.3869 65.5136 25.2484 65.477 21.4529 65.3038C17.9429 65.1436 16.0368 64.5571 14.7682 64.0641C13.0878 63.4112 11.8885 62.631 10.6288 61.3713C9.3691 60.1116 8.58885 58.9122 7.93593 57.232C7.44292 55.9633 6.85645 54.0571 6.69626 50.5473C6.52306 46.7511 6.48647 45.6126 6.48647 36.0001C6.48647 26.3877 6.52306 25.2492 6.69626 21.4531C6.85645 17.9432 7.44292 16.037 7.93593 14.7683C8.58885 13.088 9.3691 11.8887 10.6288 10.629C11.8885 9.3693 13.0878 8.58906 14.7682 7.93599C16.0368 7.44312 17.9429 6.85665 21.4528 6.69646C25.249 6.52326 26.3875 6.48668 35.9999 6.48668ZM35.9999 6.10352e-05C26.2228 6.10352e-05 24.997 0.0415027 21.1572 0.216701C17.3253 0.391613 14.7085 1.00009 12.4185 1.89009C10.0512 2.81009 8.04354 4.04105 6.04219 6.0424C4.04085 8.04374 2.80989 10.0514 1.88988 12.4187C0.999887 14.7087 0.391409 17.3255 0.216497 21.1574C0.0412987 24.9971 0 26.223 0 36.0001C0 45.7772 0.0412987 47.0032 0.216497 50.8428C0.391409 54.6747 0.999887 57.2916 1.88988 59.5816C2.80989 61.9487 4.04085 63.9565 6.04219 65.9579C8.04354 67.9592 10.0512 69.1902 12.4185 70.1102C14.7085 71.0002 17.3253 71.6087 21.1572 71.7836C24.997 71.9588 26.2228 72.0001 35.9999 72.0001C45.777 72.0001 47.003 71.9588 50.8426 71.7836C54.6745 71.6087 57.2914 71.0002 59.5814 70.1102C61.9487 69.1902 63.9563 67.9592 65.9577 65.9579C67.959 63.9565 69.19 61.9489 70.11 59.5816C71 57.2916 71.6084 54.6747 71.7834 50.8428C71.9586 47.0032 72 45.7772 72 36.0001C72 26.223 71.9586 24.9971 71.7834 21.1574C71.6084 17.3255 71 14.7087 70.11 12.4187C69.19 10.0514 67.959 8.04374 65.9577 6.0424C63.9563 4.04105 61.9487 2.81009 59.5814 1.89009C57.2914 1.00009 54.6745 0.391613 50.8426 0.216701C47.003 0.0415027 45.777 6.10352e-05 35.9999 6.10352e-05ZM35.9999 17.5136C25.7901 17.5136 17.5134 25.7903 17.5134 36.0001C17.5134 46.2099 25.7901 54.4867 35.9999 54.4867C46.2097 54.4867 54.4865 46.2099 54.4865 36.0001C54.4865 25.7903 46.2097 17.5136 35.9999 17.5136ZM35.9999 48.0002C29.3726 48.0002 23.9999 42.6275 23.9999 36.0001C23.9999 29.3728 29.3726 24.0001 35.9999 24.0001C42.6273 24.0001 48 29.3728 48 36.0001C48 42.6275 42.6273 48.0002 35.9999 48.0002ZM59.5368 16.7832C59.5368 19.1691 57.6027 21.1033 55.2168 21.1033C52.831 21.1033 50.8968 19.1691 50.8968 16.7832C50.8968 14.3973 52.831 12.4633 55.2168 12.4633C57.6027 12.4633 59.5368 14.3973 59.5368 16.7832Z" fill="#10284B"></path></svg>