<svg width="100%" height="35" viewBox="0 0 961 35" fill="none" xmlns="http://www.w3.org/2000/svg" style="margin: 0rem 0px; max-width: 961px;"><path d="M0.343171 17.7975C0.257378 17.0254 0.343171 16.6822 0.257378 16.6822C0.257378 16.5964 0.171585 16.8538 0.0857926 17.0254C-8.19564e-08 17.197 0.0857927 17.3685 0 17.197C0 17.1112 -8.19564e-08 17.0254 0.0857926 16.768C0.0857926 16.5106 0.171585 16.1675 0.343171 15.7385C0.514756 16.1675 0.343171 16.768 0.343171 17.7975Z" fill="#99D6CC"></path><path d="M949.125 8.5319C943.548 10.4193 936.857 11.8778 930.079 13.1647C923.216 14.3658 916.266 15.3095 909.832 16.2532C908.373 16.4248 910.175 15.6527 906.829 16.0816C900.652 16.9396 892.588 17.197 884.266 16.2532C880.062 15.8243 875.858 14.9663 871.826 13.9368C867.793 12.9073 863.933 11.6204 860.329 10.2478L861.273 10.3335C858.528 9.38983 855.01 8.78928 852.179 7.75977C852.179 7.67398 853.123 7.93134 852.522 7.58817C851.664 7.67396 847.203 6.04391 845.83 5.95812C844.715 5.52915 844.887 5.27178 843.428 4.75702L841.627 4.67123C839.139 4.49964 836.307 3.8133 833.133 3.38434C831.589 3.12696 829.959 2.86957 828.243 2.86957C826.613 2.78378 824.897 2.69799 823.181 2.86957C823.524 2.78378 824.125 2.698 823.61 2.61221C818.205 2.86959 812.286 3.89908 806.28 5.35756C800.275 6.81603 794.269 8.78928 788.693 10.8483C789.121 10.5909 789.465 10.162 788.693 10.2478C788.264 10.8483 784.832 12.1352 781.829 13.3363C780.371 13.4221 776.767 15.5669 773.164 16.5964L773.421 16.4248C770.933 17.7117 769.475 17.6259 767.502 18.7412L765.7 18.9986C764.756 19.9423 761.754 19.9423 759.695 20.886L759.78 20.9718C757.721 21.744 756.52 21.6582 754.633 22.2587H754.461C752.145 22.8593 750.343 23.2025 749.142 23.4598C747.941 23.7172 747.255 23.803 747.34 24.0604C746.482 23.9746 747.598 23.803 748.627 23.5456C749.657 23.2882 750.515 23.0309 749.142 23.0309C745.367 23.803 741.507 24.4036 737.56 24.7467C735.587 24.9183 733.614 25.0041 731.64 25.0899C730.697 25.0899 729.667 25.0899 728.723 25.0899C727.78 25.0899 726.75 25.0899 725.806 25.0041C721.86 24.9183 717.914 24.4893 714.053 24.0604C710.192 23.5456 706.246 22.9451 702.471 22.2587C700.755 21.744 699.64 21.4866 699.297 21.2292C697.752 21.0576 693.548 20.1139 692.09 20.0281C692.605 20.1139 691.146 19.5992 690.374 19.4276C687.629 18.6554 687.286 19.1702 684.283 18.3123C685.484 18.4838 685.913 18.398 685.57 18.2265C682.91 17.9691 679.478 17.0254 676.39 16.4248C676.905 16.5106 677.591 16.5964 677.505 16.4248C674.073 15.9959 671.414 14.8805 668.497 14.3658H669.612C664.979 12.9073 668.068 14.5374 664.121 13.3363C665.151 13.5079 664.808 13.3363 664.979 13.2505C661.119 12.7357 654.942 11.1915 651.167 10.5051C651.424 10.5051 651.338 10.4193 651.338 10.4193C647.22 9.56142 642.845 8.61768 638.212 8.01714C636.582 7.67396 638.898 7.50239 634.437 6.90184C634.523 7.4166 626.887 6.12969 629.375 7.07341C625.601 6.55865 619.595 5.95812 617.021 6.04391C618.737 5.95812 615.134 5.35756 618.394 5.44336C617.622 5.35756 616.764 5.18598 615.992 5.01439C616.335 4.75701 618.48 5.18599 617.708 4.84282C616.078 4.75703 611.445 4.9286 609.986 5.01439C608.528 5.27177 607.069 5.52914 605.439 5.78652C605.01 5.87231 604.581 5.87232 604.152 5.95812C603.723 6.04391 603.294 6.12969 602.78 6.21548C601.836 6.38707 600.806 6.55865 599.605 6.64445C601.836 6.21548 598.233 6.21549 599.777 5.95812L596.517 6.81604C595.401 7.15921 594.372 7.50239 593.257 7.75977C591.712 8.01715 592.828 7.41658 590.597 7.93134C590.769 8.01713 589.739 8.27452 589.053 8.5319C588.452 8.5319 582.618 9.90459 581.846 9.56142C581.16 9.47563 584.334 8.96087 582.618 9.13246C579.701 9.64721 579.616 9.90457 576.784 10.5909L576.699 10.5051C574.811 10.8483 571.208 11.9636 573.267 11.792C574.554 11.5346 572.666 11.6204 574.64 11.2773C573.353 11.8778 570.093 12.7357 567.261 13.4221C568.205 13.0789 568.034 12.9931 568.463 12.7357C564.688 14.0226 560.741 15.2237 556.452 16.5106C556.452 16.768 557.91 15.6527 558.596 15.6527C553.02 16.768 547.443 19.0844 542.725 19.7707C543.497 19.5134 543.24 20.0281 543.154 19.9423C540.494 20.6287 540.494 20.1997 538.864 20.7145C538.607 20.5429 536.719 21.315 534.918 21.8298C534.06 22.1729 534.403 21.8298 535.947 21.4866C534.746 21.9156 531.658 22.6877 528.14 23.5456C526.424 23.9746 524.451 24.3177 522.649 24.6609C520.848 25.0041 519.132 25.2615 517.673 25.4331C517.845 25.5189 514.156 26.3768 512.783 26.5484L513.298 26.2052C512.697 26.2052 511.496 26.3768 510.552 26.4626C509.523 26.5484 508.665 26.6342 508.493 26.4626C507.807 26.6342 508.15 26.6342 509.008 26.5484C509.437 26.4626 509.952 26.4626 510.638 26.3768C511.239 26.291 511.925 26.2052 512.612 26.0336C515.271 25.6047 517.759 25.1757 515.872 25.5188C514.842 25.433 510.467 26.7199 511.325 26.2052C508.579 26.5483 506.005 27.0631 503.346 26.9773C504.118 26.9773 505.577 26.3768 503.346 26.5484C499.485 26.8057 502.231 26.72 499.056 26.8916L497.083 27.0631C496.911 27.4063 493.566 27.0631 495.024 27.4063C494.509 27.2347 489.276 27.2347 489.791 26.8057L490.391 26.4626C488.675 26.3768 487.646 26.7199 486.273 26.8057C486.016 26.7199 485.587 26.6342 485.673 26.5484C485.329 27.0631 481.64 26.0336 479.581 26.2052C477.865 25.7762 475.635 25.4331 473.662 25.0041C471.688 24.5751 469.973 24.1462 469.2 23.803C466.541 23.374 464.053 23.0308 461.136 22.0871C461.736 22.1729 462.594 22.4303 462.766 22.3445C460.964 21.6582 460.45 21.6582 458.734 21.315C459.163 21.315 455.13 19.9423 453.071 19.1702C450.412 18.6554 451.27 19.1702 450.927 19.3418C448.696 18.0549 443.548 17.6259 440.803 16.339C441.747 16.5106 444.664 17.1112 442.519 16.339C440.288 15.0521 437.629 15.4811 433.94 14.1942L434.712 14.8806C433.082 14.1942 429.049 13.8511 429.564 13.4221C428.277 13.3363 425.103 12.3068 425.446 12.9073C424.674 12.7357 423.816 12.4784 422.958 12.3068C422.1 12.1352 421.242 12.0494 420.299 11.8778C419.441 11.7062 418.497 11.6204 417.553 11.4488C416.609 11.3631 415.752 11.2773 414.808 11.1915C413.95 11.1057 413.092 11.0199 412.234 10.9341C411.376 10.8483 410.604 10.8483 409.832 10.7625C408.373 10.6767 407.001 10.4193 406.057 10.2478C405.113 10.3335 402.883 10.3335 403.312 10.5909C404.856 10.8483 405.456 10.3335 405.971 10.5051C405.113 10.5909 404.942 10.6767 404.856 10.7625C402.883 10.7625 401.338 10.7625 403.14 10.2478C402.025 10.2478 401.167 10.2478 400.48 10.3335C399.794 10.5051 399.194 10.6767 398.507 10.8483C397.907 11.0199 397.22 11.1915 396.362 11.363C395.933 11.4488 395.504 11.5346 394.904 11.6204C394.389 11.7062 393.789 11.8778 393.102 11.9636C393.274 11.7062 392.845 11.7062 391.301 12.0494C390.271 12.3068 389.327 12.7357 388.384 13.0789C384.866 13.9368 386.239 13.1647 386.067 12.8215C384.18 13.4221 381.949 14.1942 381.177 14.709L378.775 15.1379C380.491 14.8806 377.316 15.8243 376.544 16.339C376.802 16.1675 377.059 16.0817 377.402 15.9101C376.973 15.9101 374.914 16.8538 373.885 17.2828C374.228 17.3686 376.373 16.5964 377.574 16.1674C376.716 16.6822 375.257 17.197 374.056 17.8833C374.314 17.3685 371.054 18.9128 369.595 19.5133C367.879 20.1139 367.879 20.6287 367.364 20.8002C367.279 20.6287 364.705 21.9156 365.82 21.1434C366.335 20.8861 367.193 20.7145 368.051 20.1997C366.936 20.5429 366.935 20.1997 364.791 21.4008C363.161 22.2587 365.477 21.8298 362.217 23.0309C362.989 22.6019 363.161 22.4303 363.761 22.0014L360.673 23.2024V23.5456C360.244 23.6314 360.501 23.5456 360.329 23.5456C359.557 24.232 355.782 25.6904 355.182 26.291C353.638 26.9773 351.836 27.4921 350.292 28.0068L350.549 27.8353C349.605 28.0926 348.49 28.5216 347.546 28.9505C346.517 29.3795 345.573 29.7227 344.801 30.1517L344.887 30.0658C344.372 30.2374 343.514 30.4948 342.656 30.838C341.798 31.0954 340.854 31.4385 340.254 31.6959C337.594 32.2107 339.053 30.838 336.222 31.8675C333.562 32.5539 332.104 33.2402 333.219 33.2402C331.932 33.4118 330.645 33.5834 329.358 33.755C328.071 33.9266 326.699 34.0123 325.412 34.0981L324.468 34.1839H323.524C322.838 34.1839 322.237 34.1839 321.551 34.1839C320.264 34.0981 319.063 34.0123 317.948 33.755C317.262 33.8408 317.69 33.9265 316.146 33.8407C312.457 33.326 308.682 32.6396 305.079 31.6959C301.561 30.7522 298.216 29.5511 295.642 28.35C297.701 28.9505 295.899 28.0926 295.899 27.921C294.183 27.5779 294.097 26.8915 293.325 27.1489C293.411 27.4921 293.154 27.4921 295.041 28.35C290.923 26.9773 284.918 24.4035 282.859 23.2024C283.888 23.803 283.03 23.5456 282.086 23.2024C282.515 22.945 279.684 21.5724 277.454 20.8002L277.025 20.886L275.738 20.0281C274.88 19.7707 274.622 20.1139 272.563 18.9986C272.478 18.827 272.392 18.7412 272.049 18.4839C269.732 17.7117 266.386 16.768 263.984 15.5669C263.384 15.1379 262.697 14.7948 262.097 14.4516C261.067 14.1084 259.18 13.6795 260.981 14.4516C256.863 12.7357 254.032 11.9636 252.745 11.2773C248.885 10.6767 244.252 9.99037 239.447 9.81879C238.847 9.81879 238.246 9.81879 237.646 9.81879C237.045 9.81879 236.445 9.81879 235.844 9.81879C234.643 9.90458 233.442 9.99038 232.241 9.99038C231.984 9.99038 231.64 9.99036 231.383 10.0762L230.525 10.162C229.924 10.2477 229.324 10.3336 228.809 10.4193C227.694 10.5909 226.493 10.6767 225.463 10.9341L225.721 10.6767C223.318 11.0199 224.605 11.2773 222.89 11.4488C223.576 11.1057 221.002 11.4489 222.804 10.7625C221.946 10.8483 221.259 11.0199 220.659 11.2773C220.058 11.4489 219.629 11.6204 219.115 11.8778C218.257 12.3068 217.485 12.5642 216.455 12.9931C216.369 13.1647 216.712 12.9931 217.141 12.8215C217.57 12.6499 217.914 12.5641 217.828 12.7357C217.485 12.9073 213.195 14.0226 212.852 14.5374C211.994 14.6232 212.509 14.1942 212.938 13.8511C212.251 14.1084 211.651 14.4516 211.05 14.709C209.763 14.9664 211.05 14.1942 212.337 13.5079C213.624 12.8215 214.997 12.1352 213.538 12.3068L211.651 12.9931C209.763 13.1647 216.455 10.8483 211.736 12.3068C209.763 13.2505 208.305 14.4516 210.106 13.9368C205.988 15.5669 208.476 15.5669 204.101 17.2828C202.814 17.5401 207.618 15.8243 206.675 15.8243C204.444 16.339 202.557 17.7117 200.669 18.3981C202.814 17.6259 201.184 18.7412 199.897 19.4276C197.581 20.1997 201.184 18.4839 198.01 19.7707C197.581 20.1997 194.664 21.6582 197.323 20.7145C196.38 21.6582 193.977 22.0013 192.347 23.1167C191.146 23.2024 195.35 20.9718 191.747 22.2587C192.433 22.3445 187.543 24.4893 189.602 24.2319C188.143 24.7467 187.886 24.4894 188.83 23.8888C186.771 24.4894 184.197 26.4626 183.253 26.0336L182.653 26.6341C181.966 26.7199 181.023 26.9773 179.907 27.2347C179.049 27.5779 177.591 28.1784 176.39 28.6074C175.189 29.0364 174.245 29.3795 174.245 29.0364C173.73 29.2937 169.441 30.3233 171.156 30.3233C172.529 30.0659 173.301 29.8085 173.902 29.6369C174.502 29.3795 174.931 29.2937 175.789 29.2937C173.816 29.5511 172.014 30.409 170.47 31.0096L170.127 30.838C169.698 31.0096 168.926 31.2669 168.24 31.3527C167.553 31.5243 166.867 31.6959 166.609 31.8675C167.296 31.6101 166.867 31.5244 166.181 31.6101L165.237 32.1249C163.349 32.5538 163.092 32.3823 162.835 32.2965C162.577 32.2107 162.406 32.0391 160.518 32.2965L163.349 31.6959C162.749 31.7817 161.462 31.6959 159.66 31.9533C159.317 32.1249 158.802 32.3823 158.373 32.5538C157.859 32.7254 157.43 32.897 157.086 32.9828C154.942 33.1544 156.143 32.7254 153.998 33.0686C154.942 32.9828 155.8 32.8112 156.743 32.6396C156.915 32.5538 156.486 32.468 155.628 32.3823C155.199 32.3823 154.684 32.2965 154.084 32.2965C153.483 32.2107 152.797 32.2107 152.111 32.2107C150.309 32.2964 147.478 32.4681 150.309 32.897C148.85 32.8112 146.877 32.468 148.078 32.3823C144.904 32.2107 148.507 32.7254 145.676 32.6396C145.161 32.468 143.96 32.2107 142.759 31.9533C141.472 31.6101 140.185 31.2669 139.156 30.9238H142.073L140.185 30.5806C142.673 30.5806 138.984 30.0659 140.443 29.8943C139.156 29.6369 137.612 29.4653 136.41 29.2937C138.212 29.9801 137.097 29.9801 135.724 29.9801C134.266 29.8943 132.55 29.7227 133.065 30.1517C130.491 29.6369 129.804 29.0364 129.118 28.6074C128.346 28.0927 127.574 27.7494 124.914 27.4921C125.686 27.921 123.113 27.6636 126.287 28.35C123.198 27.4063 124.056 28.35 120.453 27.0631C123.198 27.6636 117.793 25.6047 121.74 26.4626C121.397 26.5484 123.885 27.2347 124.485 27.3205C123.284 26.72 124.914 26.8057 121.826 25.862C119.938 25.3473 117.279 24.5751 117.622 25.0041C117.622 25.3473 120.539 25.862 119.252 25.862C115.391 24.8325 114.962 24.1462 113.246 24.2319C115.649 24.9183 116.163 25.4331 115.992 25.6904L113.161 25.0041L113.761 24.9183C109.386 23.374 112.303 24.9183 108.013 23.5456L106.126 22.5161C107.241 22.4303 112.303 24.5751 111.702 23.7172C108.957 22.8593 107.927 22.8593 105.353 21.9156C105.954 22.0014 106.726 22.2587 107.327 22.3445C106.297 22.0871 105.611 20.8861 101.407 20.2855C99.2622 19.9423 100.806 20.3713 100.721 20.5429C96.1736 19.4276 94.801 19.4276 91.884 18.9128C92.5704 18.5696 86.7364 17.9691 89.9966 18.0549C91.455 18.4839 97.9753 19.9423 99.6911 19.9423C98.919 19.5134 99.8627 19.6849 101.064 20.0281C102.265 20.3713 103.809 20.8003 104.324 20.7145C100.721 19.685 101.064 19.256 100.549 18.7412C99.5196 18.4838 98.4901 18.3981 97.8895 18.3123C97.3747 18.5696 98.7474 18.827 98.6616 19.1702C96.6884 18.5696 94.6294 18.2265 92.8277 17.8833C91.0261 17.6259 89.4818 17.4543 88.2807 17.4543C86.908 17.0254 87.4228 16.768 89.0528 17.0254C84.1627 16.339 78.8435 15.6527 74.2107 15.3095C75.755 15.6527 74.3823 15.6527 73.0096 15.5669C71.5511 15.5669 70.0069 15.4811 71.0364 15.7385C71.6369 15.8243 72.2375 15.8243 72.838 15.9101C73.3528 15.9959 73.8675 16.0816 74.1249 16.1674C74.8112 16.339 74.9828 16.5106 74.2965 16.5964C72.7522 16.4248 74.3823 16.339 73.6959 16.1674C71.7227 16.339 70.6074 15.5669 68.6342 15.9959C73.1812 15.9101 69.4921 15.3095 70.35 14.9663C67.0899 15.1379 70.5216 14.6232 67.2615 14.6232C64.0014 14.8806 59.9691 15.1379 56.3658 15.5669C55.2505 15.5669 53.9636 15.5669 52.5909 15.7385C51.2183 15.9101 49.8456 16.0817 48.3871 16.2532C47.0144 16.5106 45.6417 16.768 44.3548 16.9396C43.0679 17.1969 41.9526 17.4543 40.9231 17.6259C38.7783 17.7975 40.0652 17.0254 37.8346 17.4543C35.175 18.0549 39.8936 17.5401 35.9471 18.2265L36.2903 18.0549C35.6898 18.2265 33.8881 18.5696 32.0865 19.0844C31.2285 19.3418 30.2848 19.5992 29.5985 19.8565C28.9121 20.1139 28.3116 20.3713 28.14 20.6287L29.1695 19.7707C28.3974 19.9423 27.7968 20.2855 27.1963 20.5429C27.1105 20.3713 26.2526 20.4571 27.3679 20.0281C24.8799 20.3713 22.3919 21.744 19.9039 22.6019L21.6198 22.3445C19.4749 23.2024 17.6733 23.9746 15.7859 24.4893C13.8984 25.0899 12.011 25.5188 9.69458 25.6904L9.78037 25.3472C8.92244 25.433 7.97872 25.4331 7.035 25.4331C7.37817 25.3473 6.94921 25.1757 6.26287 24.9183C5.57653 24.6609 4.7186 24.3177 4.03226 24.0604C6.17707 25.0899 8.57927 25.0041 10.8099 24.4893C11.7536 24.4893 11.2388 24.6609 10.6383 24.8325C10.0377 25.0041 9.35141 25.1757 9.95195 25.2615C10.4667 25.3473 11.8394 25.2614 13.0405 24.9183C14.2416 24.5751 15.3569 24.1462 15.7001 23.8888C14.1558 24.3178 14.1558 24.4035 12.9547 24.8325C12.3542 24.5751 14.6706 23.9746 15.7001 23.2882C14.9279 23.5456 13.8126 23.803 13.641 23.9746C15.0995 23.374 16.6438 22.7735 19.2176 21.8298C17.5017 22.6019 20.2471 21.744 19.6465 22.0871C19.7323 21.6582 22.1345 20.6287 25.3946 19.6849C26.5957 19.5134 28.14 18.9986 29.7701 18.3981C31.4859 17.8833 33.2876 17.1112 35.2608 16.768C33.8023 17.4543 31.9149 18.3123 29.6843 19.0844C32.0865 18.6554 32.3439 18.3123 34.7461 17.9691C35.8614 17.4543 36.5477 16.768 39.6362 15.9959L39.8936 16.2532C42.7248 15.5669 42.639 15.1379 46.3281 14.6232C52.6767 13.7653 59.197 13.3363 64.0014 13.2505L64.173 13.5079C66.8325 12.8215 73.1812 13.3363 76.7845 13.3363C79.873 13.6795 83.2189 14.0226 86.1359 14.3658C87.5944 14.5374 88.9671 14.7948 90.1682 15.0521C91.3692 15.3095 92.3988 15.4811 93.1709 15.8243C103.981 17.7975 112.989 20.8002 123.713 24.0604L121.826 23.8888C123.799 24.1462 123.027 24.4893 124.914 25.0041C122.855 24.0604 127.66 25.3473 129.032 25.4331C133.751 27.0631 140.1 28.0926 144.389 28.35L144.561 28.6074C149.022 28.6074 154.17 29.3795 159.66 28.9505C160.261 29.0363 161.29 29.1221 162.92 28.9505C165.752 27.921 167.296 27.7494 171.5 26.3768C171.843 26.291 172.272 26.2052 172.701 26.0336C173.13 25.862 173.559 25.7762 174.073 25.6047C175.017 25.3473 176.047 25.0041 177.076 24.7467C179.049 24.0604 181.108 23.4598 182.653 22.9451C193.72 18.0549 205.045 12.7357 217.399 8.70349L218.428 8.78926C219.2 8.53189 219.887 8.27451 220.659 8.01714C221.431 7.75976 222.203 7.58819 223.061 7.4166C224.691 6.98764 226.321 6.64446 228.037 6.38708C229.753 6.1297 231.383 5.87231 233.185 5.78652C234.9 5.70073 236.616 5.52916 238.332 5.70075C241.764 5.78654 245.11 6.21549 248.198 6.81604C251.287 7.41659 254.204 8.10292 256.778 8.78926L255.662 9.04666C258.837 10.0762 262.955 11.2773 262.268 10.5909C265.357 11.8778 270.161 13.3363 271.963 14.6232C275.051 16.0817 275.909 15.9959 278.483 17.1112C284.574 20.0281 286.891 21.0576 292.725 23.374L291.266 22.7735C290.58 22.6019 290.408 22.7735 291.867 23.4598C294.097 24.232 299.846 26.7199 297.958 25.2615C301.047 26.6342 304.736 27.7495 308.511 28.6074C312.286 29.4653 315.975 29.98 319.149 30.4948C318.634 30.3232 320.264 30.3232 320.865 30.2374C326.527 30.4948 332.618 29.9801 337.08 28.5216C338.023 28.4358 335.707 29.1222 338.023 28.6074C339.396 28.1784 338.023 28.35 339.653 27.8353C344.115 26.3768 348.662 24.8325 353.037 23.1167C357.498 21.4008 361.788 19.5991 365.82 17.7975C372.941 14.4516 380.405 11.2773 388.298 9.30403C396.191 7.245 404.427 6.73025 412.062 7.24501L411.891 7.3308C417.038 7.24501 423.73 9.21824 427.848 9.38982C429.049 9.733 432.31 10.4193 431.366 10.5051C435.398 11.0199 442.176 13.5937 447.924 14.709C447.409 14.5374 447.152 14.4516 446.551 14.3658C452.128 16.2532 457.104 17.2827 462.938 19.1702C462.337 19.0844 461.222 18.827 461.05 18.9128C463.281 19.7707 466.627 19.7707 467.742 20.7145C469.029 21.0576 468.771 20.6287 467.913 20.4571C474.348 22.1729 481.126 23.4598 487.989 23.8888C491.421 23.9746 494.852 24.3177 498.37 24.0604L500.944 23.9746C501.802 23.9746 502.66 23.9746 503.517 23.803C505.233 23.6314 506.949 23.4598 508.665 23.2882C509.266 23.2882 509.866 23.2882 510.295 23.2024C510.81 23.2024 511.153 23.1167 511.496 23.1167C512.183 23.1167 512.697 23.0309 513.04 23.1167C513.727 23.1167 513.727 23.2882 513.641 23.374C513.555 23.5456 513.212 23.6314 517.073 22.8593C517.759 22.8593 517.502 22.5161 517.588 22.6877C520.59 22.0013 522.392 22.6019 524.365 21.9156C523.421 21.6582 525.738 21.4866 525.738 21.2292C531.743 20.1997 533.03 20.3713 537.663 18.9128L537.32 19.1702C538.693 18.6554 540.065 18.2265 541.524 17.8833C542.982 17.4543 544.355 17.0254 545.813 16.5964C548.644 15.8243 551.39 14.9663 553.62 14.0226C561.17 11.9636 568.72 9.90458 576.27 8.18873C580.045 7.24501 583.82 6.55865 587.68 5.78652C589.568 5.44335 591.541 5.18599 593.428 4.84282L596.259 4.41386L599.176 4.07067C601.064 3.89908 603.037 3.64172 604.924 3.47013L610.758 3.12697C614.619 2.95538 618.566 3.04115 622.426 3.21274C630.148 3.6417 637.869 4.75703 645.419 6.12971C660.432 9.04666 674.846 13.0789 689.345 16.4248C703.844 19.685 718.514 22.4303 733.528 22.2587C734.386 22.2587 735.158 22.3445 735.844 22.3445C736.531 22.3445 737.131 22.3445 737.732 22.3445C738.933 22.3445 739.876 22.3445 740.82 22.2587C741.764 22.1729 742.793 22.0871 744.08 21.9156C745.281 21.6582 746.74 21.4866 748.627 21.0576C748.37 21.2292 747.855 21.315 748.37 21.315C748.542 21.0576 749.828 20.8002 751.201 20.4571C751.887 20.2855 752.574 20.1997 753.174 20.0281C753.775 19.8565 754.204 19.6849 754.29 19.5133C765.1 16.9396 774.708 12.9931 785.69 9.04666C783.974 9.733 783.202 10.4193 785.261 9.64719L787.32 8.61769H787.749C789.122 8.01715 790.666 7.3308 789.121 7.67397C796.071 5.18598 803.191 2.95537 810.57 1.58268C812.457 1.23951 814.259 0.896348 816.146 0.810555L818.977 0.553188C819.921 0.467395 820.865 0.46739 821.808 0.46739L824.64 0.381592C825.583 0.381592 826.527 0.467395 827.471 0.553188L830.302 0.724757C831.246 0.81055 832.189 0.98213 833.133 1.06792C848.147 3.29853 861.187 10.0762 874.914 12.6499C875.686 12.8215 876.544 13.0789 877.488 13.2505C878.346 13.4221 879.29 13.5079 880.233 13.6795C881.177 13.851 882.207 14.0226 883.15 14.1084C884.18 14.1942 885.209 14.28 886.239 14.3658C890.357 14.709 894.561 14.709 898.164 14.709C903.569 14.7948 908.802 14.6232 914.036 14.1084L916.009 13.9368L917.982 13.6795C919.269 13.5079 920.556 13.3363 921.843 13.2505C924.417 12.8215 926.99 12.5642 929.564 12.0494C939.859 10.3335 950.069 7.84554 960.793 4.92859C960.793 4.92859 960.192 5.35758 958.391 6.12971C956.417 6.2155 953.586 7.3308 949.125 8.5319Z" fill="#99D6CC"></path><path d="M2.05903 21.2292C2.31641 21.9156 4.20385 23.5456 2.48799 22.5161C2.48799 22.3445 2.23062 22.0014 2.14482 21.744C1.97324 21.4866 1.88744 21.2292 2.05903 21.2292Z" fill="#99D6CC"></path><path d="M67.3473 15.3095C67.4331 15.2237 68.291 15.3953 68.5484 15.4811C67.6905 15.4811 66.9183 15.6528 66.3178 15.5669C67.0899 15.4811 66.9183 15.3953 67.3473 15.3095Z" fill="#99D6CC"></path><path d="M84.5058 16.6821C84.3342 16.7679 83.3905 16.6821 82.1894 16.5964C80.9883 16.5106 79.5299 16.4248 78.4146 16.339C80.3878 16.4248 82.4468 16.5106 84.5058 16.6821Z" fill="#99D6CC"></path><path d="M99.9485 20.5429C101.235 21.0576 100.806 21.0576 99.0906 20.5429C99.0048 20.4571 99.6054 20.5429 99.9485 20.5429Z" fill="#99D6CC"></path><path d="M101.15 20.4571C102.437 20.8003 103.037 21.0576 103.638 21.4008C103.723 21.1434 100.635 20.6287 101.15 20.4571Z" fill="#99D6CC"></path><path d="M135.038 30.6664C135.896 30.838 137.783 31.0954 138.469 31.4386C137.697 31.0954 134.351 30.838 135.038 30.6664Z" fill="#99D6CC"></path><path d="M151.767 32.5538C152.282 32.5538 152.539 32.6396 153.14 32.5538C154.17 32.6396 153.054 32.8112 152.196 32.8112L151.767 32.5538Z" fill="#99D6CC"></path><path d="M437.286 15.3953L435.57 14.9664L435.827 14.8806L437.286 15.3953Z" fill="#99D6CC"></path><path d="M565.889 14.28C567.605 13.7652 567.09 14.1942 567.433 14.1084C565.889 14.4516 567.948 13.6794 565.889 14.28Z" fill="#99D6CC"></path><path d="M635.124 7.50238L634.609 7.41661L634.78 7.07343L635.124 7.50238Z" fill="#99D6CC"></path></svg>