<svg width="100%" height="3" viewBox="0 0 1200 3" fill="none" xmlns="http://www.w3.org/2000/svg"><path d="M1185.4 1.01196C1171.14 1.5601 1152.26 1.09629 1136.57 1.47577C1134.7 1.51794 1137.01 1.18062 1132.84 1.26495C1117.69 1.6866 1093.66 1.51794 1075.11 1.22278L1076.21 1.13845C1072.7 1.09629 1068.42 1.34928 1064.69 1.34928C1064.69 1.30711 1065.9 1.26495 1065.02 1.18062C1064.03 1.34928 1058.21 1.26495 1056.68 1.39144C1055.25 1.34928 1055.36 1.22278 1053.39 1.13845L1051.3 1.30711C1045.38 1.77093 1036.82 1.30711 1028.69 1.51794C1029.13 1.47577 1029.9 1.43361 1029.24 1.39144C1016.18 1.6866 999.943 1.64443 985.348 1.77092C985.897 1.68659 986.445 1.60227 985.567 1.51794C984.799 1.72876 980.3 1.77093 976.459 1.81309C974.703 1.60227 969.765 1.98175 965.156 1.89742L965.595 1.85526C962.193 2.06608 960.547 1.72876 957.803 1.98175L955.609 1.81309C954.072 2.10825 950.67 1.6866 947.927 1.81309L948.037 1.85526C945.403 1.93959 943.976 1.77093 941.562 1.85526L941.342 1.81309C935.636 1.89742 932.234 1.72876 932.454 1.93958C930.478 1.77093 938.05 1.85526 934.868 1.60227C915.993 1.85526 896.569 1.81309 877.584 1.81309C875.389 1.72876 874.072 1.6866 873.524 1.60227C871.658 1.64443 866.391 1.64443 864.635 1.77092C865.293 1.77092 863.428 1.64443 862.44 1.64443C859.038 1.5601 858.709 1.89742 854.868 1.77092C856.404 1.72876 856.843 1.64443 856.404 1.5601C853.222 1.72876 848.832 1.68659 844.991 1.77092C845.54 1.72876 846.528 1.72876 846.418 1.64443C842.248 1.85526 838.846 1.60227 835.115 1.72876L836.542 1.60227C830.616 1.43361 834.786 1.85525 829.738 1.77092C830.945 1.72876 830.506 1.6866 830.725 1.64443C826.007 1.85526 818.325 1.81309 813.496 1.89742C813.826 1.89742 813.716 1.85526 813.716 1.85526C808.558 1.89742 803.181 1.81309 797.474 1.89742C795.389 1.85526 798.133 1.60227 792.646 1.64443C792.865 1.89742 783.318 1.72876 786.61 2.02392C781.891 1.98175 774.539 1.89742 771.466 1.98175C773.551 1.89742 769.162 1.6866 773.112 1.64443L770.149 1.47577C770.588 1.39144 773.222 1.51794 772.234 1.39144C770.259 1.39144 764.662 1.51794 762.907 1.47577C759.285 1.64443 755.993 1.89742 750.177 1.93958C752.92 1.85525 748.641 1.64443 750.506 1.60227L742.385 2.06608C740.41 2.06608 741.946 1.85525 739.203 1.93958C739.313 2.02391 738.106 2.06608 737.228 2.10824C736.459 2.06608 729.107 2.15041 728.339 1.93958C727.461 1.85525 731.521 1.89742 729.326 1.81309C725.705 1.81309 725.595 1.89742 721.974 1.89742L721.864 1.85526C719.45 1.81309 714.841 1.93959 717.475 2.10824C719.121 2.10824 716.816 1.93959 719.34 2.02392C717.694 2.15041 713.524 2.19257 709.903 2.19257C711.11 2.15041 711 2.10825 711.439 2.02392C706.61 2.23474 701.453 2.2769 696.076 2.36123C695.966 2.48773 698.051 2.15041 698.929 2.19257C692.015 2.02391 684.663 2.4034 678.956 2.19257C679.944 2.19257 679.505 2.36123 679.395 2.31907C676.103 2.31907 676.213 2.15041 674.018 2.19257C673.798 2.10824 671.274 2.23474 669.08 2.23474C667.982 2.31907 668.531 2.19257 670.396 2.19257C667.324 2.2769 654.814 2.4034 647.68 2.27691C647.79 2.36123 643.291 2.52989 641.645 2.48773L642.303 2.31907C640.767 2.23474 636.816 2.31907 636.487 2.19257C632.975 2.36123 650.095 2.02391 645.266 2.19257C644.059 2.06608 638.572 2.44557 639.669 2.23474C636.377 2.23474 633.085 2.4034 630.013 2.27691C630.89 2.31907 632.756 2.06608 630.013 2.06608C625.294 2.10825 628.696 2.15041 624.855 2.19257L622.44 2.23474C622.331 2.4034 618.27 2.19257 620.026 2.36123C619.477 2.23474 613.222 2.44556 613.661 2.19257L614.32 1.98175C612.235 1.98175 611.028 2.19258 609.382 2.27691C609.162 2.27691 608.613 2.23474 608.723 2.19257C608.394 2.48773 603.895 2.15041 601.48 2.4034C597.201 2.2769 590.616 2.4034 588.641 2.19257C585.349 2.2769 582.386 2.4034 578.655 2.31907C579.423 2.2769 580.41 2.27691 580.63 2.23474C578.325 2.15041 577.667 2.23474 575.582 2.27691C576.021 2.23474 570.863 2.10824 568.229 1.98175C564.937 2.06608 566.035 2.23474 565.705 2.31907C562.742 2.02392 556.487 2.48773 552.756 2.23474C553.853 2.19258 557.475 2.10825 554.841 2.02392C551.878 1.72876 548.805 2.23474 543.977 2.10824L545.184 2.36123C542.989 2.19257 538.051 2.48773 538.6 2.23474C536.954 2.31907 532.893 2.15041 533.442 2.4034C525.541 2.19257 514.238 2.52989 509.409 2.06608C508.312 2.10825 505.459 2.06608 506.007 2.19257C507.873 2.31907 508.641 2.10824 509.299 2.19257C508.312 2.19257 508.092 2.27691 507.983 2.27691C505.568 2.23474 503.593 2.19258 505.897 2.02392C500.411 1.85526 500.301 2.44556 493.277 2.31907C493.607 2.23474 493.058 2.19257 491.083 2.19257L487.242 2.36123C482.743 2.31907 484.718 2.15041 484.608 1.98175C482.194 2.02391 479.231 1.98175 478.133 2.10824L475.171 1.89742C477.256 2.06608 473.195 1.98175 472.098 2.02392L473.195 1.98175C472.756 1.89742 470.013 1.93958 468.586 1.98175C468.915 2.06608 471.769 2.15041 473.305 2.15041C472.098 2.23474 470.122 2.19258 468.586 2.27691C469.135 2.10825 464.636 2.15041 462.77 2.15041C460.575 2.10824 460.246 2.27691 459.697 2.27691C459.588 2.19258 456.076 2.2769 457.832 2.15041C458.6 2.10824 459.588 2.23474 460.795 2.15041C459.368 2.06608 459.478 1.93959 456.515 2.02392C454.21 2.10825 457.064 2.36124 452.784 2.23474C453.881 2.19258 454.101 2.10825 454.979 2.06608L450.918 1.98175L450.699 2.15041C450.15 2.10824 450.479 2.10825 450.26 2.06608C449.053 2.23474 444.114 2.10825 443.236 2.27691C441.261 2.27691 438.957 2.15041 437.091 2.15041H437.42C435.006 2.06608 431.933 2.10824 429.958 2.19257L430.068 2.15041C428.751 2.15041 425.678 2.15041 424.142 2.23474C420.85 2.10825 423.044 1.6866 419.423 1.85526C416.131 1.85526 414.265 2.10825 415.582 2.23474C409.656 2.10825 402.852 2.36123 397.365 2.10824C396.488 2.15041 397.036 2.19258 395.28 2.23474C386.501 2.15041 376.844 2.4034 369.931 2.10824C372.455 2.06608 370.15 1.93959 370.04 1.85526C367.955 1.98175 367.516 1.72876 366.748 1.93958C366.968 2.06608 366.748 2.15041 369.162 2.19257C364.005 2.2769 355.994 2.23474 353.141 2.10824C354.567 2.19257 353.47 2.19258 352.372 2.23474C352.702 2.02392 348.861 1.98175 346.008 2.06608L345.569 2.19257L343.703 2.06608C342.606 2.10825 342.496 2.36123 339.533 2.19257C339.423 2.15041 339.204 2.10825 338.655 2.06608C335.692 2.15041 331.412 2.36124 328.12 2.23474L325.486 2.02392C324.06 2.02392 321.755 2.15041 324.169 2.23474C318.573 2.10825 315.061 2.10824 313.305 1.93958C303.758 2.31907 289.821 2.31907 278.628 2.27691L278.957 2.19257C275.994 2.10824 277.421 2.36123 275.336 2.27691C276.323 2.19258 273.031 2.06608 275.445 1.93958C271.165 1.81309 269.958 2.10824 267.105 2.15041C266.666 2.2769 269.3 2.06608 268.751 2.23474C268.312 2.27691 262.825 2.10824 262.167 2.31907C261.069 2.23474 261.947 2.10825 262.496 2.02392L259.862 2.10824C256.68 1.85526 267.215 1.6866 263.813 1.43361L261.399 1.47577C259.094 1.26495 267.764 1.26495 261.728 1.18062C259.094 1.26495 256.899 1.5601 259.204 1.64443C253.717 1.6866 256.68 2.10825 250.754 2.06608C249.108 1.93959 255.473 2.02392 254.375 1.89742C251.632 1.72876 248.779 1.98175 246.364 1.93958C249.108 2.02391 246.803 2.19258 245.048 2.23474C242.085 2.15041 247.023 2.06608 242.743 2.02392C242.085 2.15041 238.134 2.23474 241.536 2.31907C240 2.57206 237.146 2.23474 234.842 2.44557C233.415 2.27691 239.231 2.02391 234.513 1.93958C235.281 2.10824 228.806 2.15041 231.22 2.44557C229.355 2.4034 229.245 2.2769 230.562 2.15041C227.928 2.02391 224.197 2.44556 223.429 2.10824L222.551 2.27691C221.783 2.23474 220.576 2.19258 219.259 2.06608C216.954 2.06608 211.906 2.31907 212.016 2.02392C211.248 2.06608 206.09 2.02392 208.065 2.23474C211.358 2.36124 211.797 2.10824 213.662 2.36123C211.358 2.15041 208.943 2.4034 207.078 2.44557L206.749 2.36123C205.651 2.4034 203.017 2.36123 202.359 2.48773C203.237 2.44556 202.798 2.36123 201.92 2.31907L200.713 2.48773C196.104 2.57206 199.616 2.19258 195.226 2.23474L198.628 2.10824C197.86 2.15041 196.433 1.98175 194.238 2.02392C193.36 2.15041 191.824 2.31907 191.166 2.44557C188.642 2.48773 190.068 2.27691 187.544 2.44557L190.727 2.27691C191.166 2.23474 188.532 2.02392 185.24 2.02392C183.155 2.06608 179.753 2.2769 183.155 2.36123C181.509 2.36123 179.094 2.2769 180.411 2.15041C176.57 2.19257 180.96 2.31907 177.668 2.4034C176.351 2.31907 172.181 2.15041 169.657 2.02392L173.059 1.77092H170.754C173.717 1.5601 169.218 1.60227 170.974 1.43361C169.437 1.39144 167.572 1.47577 166.035 1.51794C170.535 1.85525 160.987 1.93959 162.304 2.27691C156.049 2.36123 158.463 1.5601 151.879 2.02392C152.976 2.10825 149.904 2.31907 153.745 2.23474C149.904 2.19258 151.111 2.52989 146.502 2.4034C149.904 2.2769 142.88 2.10824 147.709 1.93958C147.38 2.02391 150.452 2.02391 151.221 1.98175C149.574 1.85525 151.55 1.6866 147.599 1.6866C145.185 1.72876 141.893 1.72876 142.332 1.85526C142.441 2.02392 146.063 1.85526 144.526 2.02392C139.698 2.06608 138.93 1.81309 136.954 2.10824C140.027 2.10824 140.795 2.2769 140.686 2.36123L137.174 2.44557L137.832 2.31907C132.126 2.23474 136.186 2.52989 130.699 2.48773L128.175 2.27691C129.492 2.06608 136.186 2.36123 135.199 2.06608C131.577 2.06608 130.48 2.19257 127.078 2.10824C127.846 2.06608 128.834 2.06608 129.602 2.06608C128.285 2.06608 127.078 1.64443 121.92 1.85526C119.286 1.93959 121.262 1.98175 121.152 2.06608C115.446 2.10825 113.69 2.23474 109.959 2.23474C110.727 2.02392 103.484 2.19257 107.544 1.98175C109.41 2.10824 117.75 2.10824 119.725 1.89742C117.64 1.64443 124.225 1.93959 125.432 1.6866C120.823 1.6866 121.042 1.39144 120.274 1.22278C118.957 1.22278 117.75 1.26495 116.982 1.30711C116.433 1.47577 118.079 1.47577 118.189 1.64443C113.031 1.60227 108.093 1.6866 105.24 1.85526C103.484 1.77093 104.033 1.60227 106.118 1.60227C99.9724 1.64443 93.4978 1.60226 87.6816 1.5601C91.4127 1.81309 81.207 1.60227 83.731 1.85526C86.8037 1.93959 89.5471 2.10825 87.7913 2.23474C85.816 2.23474 87.9011 2.10825 87.0231 2.06608C84.4991 2.19258 83.1823 1.81309 80.768 2.06608C86.3647 1.98175 81.8654 1.72876 82.8531 1.51794C78.7927 1.64443 83.0725 1.34928 79.0122 1.34928C74.9518 1.47577 70.1233 1.5601 65.624 1.60227C60.0273 1.39144 51.4677 1.60227 46.4197 1.60227C43.7859 1.47577 45.5417 1.26495 42.6885 1.22278C39.3964 1.22278 45.2125 1.47577 40.2743 1.34928L40.7132 1.30711C39.1769 1.34928 31.7146 1.13845 30.1783 1.47577L31.7146 1.22278C30.8367 1.18062 29.9588 1.26495 29.1906 1.26495C29.1906 1.18062 28.0932 1.09629 29.6296 1.05412C26.5569 0.885463 23.2647 1.09629 19.9725 1.09629L22.0576 1.26495C16.3511 1.39144 12.62 1.22278 7.13304 1.26495L7.24278 1.09629L3.95061 1.18062C4.71878 1.05412 1.75583 0.927628 0 1.05412L8.44991 0.674638C10.7544 0.758968 5.92591 0.843299 7.35252 1.01196C8.55965 1.13845 13.7174 1.09629 14.4856 0.969794C12.5103 0.969794 12.4005 0.969793 10.9739 1.05412C10.3155 0.843298 13.2784 0.843297 14.705 0.716802C13.7174 0.716802 12.2908 0.674637 12.0713 0.716802C14.0466 0.632472 16.1317 0.590309 19.4238 0.590309C17.1193 0.674639 20.631 0.716805 19.753 0.758969C19.9725 0.59031 23.155 0.505979 27.325 0.590309C30.288 0.801134 35.0068 0.463813 39.8353 0.505978C37.86 0.674637 35.4457 0.843297 32.5925 0.927626C35.5555 1.01196 35.8847 0.927628 38.9574 1.01196C40.384 0.885463 41.4814 0.674639 45.3223 0.590309L45.5417 0.716802C49.0534 0.632472 49.0534 0.463813 53.5527 0.505978C61.2344 0.590307 69.1357 0.590309 75.0616 0.590309L75.2811 0.716802C78.5732 0.421648 86.1452 0.632472 90.6445 0.505978C98.1068 0.632472 106.886 0.379484 110.727 0.632473C124.005 0.548144 135.528 0.463813 149.245 0.505978L146.941 0.716802C149.355 0.590307 148.587 0.843299 150.891 0.801134C148.148 0.632474 154.183 0.590308 155.939 0.463813C162.085 0.632473 169.876 0.463815 175.253 0.33732L175.473 0.463813C180.96 0.210824 187.434 0.463813 194.238 0.505978C195.006 0.548142 196.214 0.674638 198.299 0.674638C202.03 0.463813 203.895 0.463815 209.382 0.33732C213.333 0.33732 219.808 0.421648 223.758 0.505978C238.683 0.210823 253.827 0.421648 269.3 0.252989L270.397 0.421649C285.432 0.0843298 303.868 0.421648 316.707 0.252989L315.5 0.505978C319.56 0.590307 324.608 0.463813 323.621 0.252989C327.681 0.337319 333.717 0.126495 336.241 0.379485C340.301 0.42165 341.289 0.252989 344.691 0.210824C352.921 0.337319 355.994 0.295154 363.785 0.252989H361.81C360.932 0.295154 360.932 0.421648 362.798 0.463813C365.651 0.379483 373.442 0.548144 370.589 0.210824C378.929 0.421649 389.903 0.0843311 398.024 0.33732C397.365 0.252991 399.341 0.25299 400.219 0.16866C407.461 0.16866 415.143 0.379484 420.959 0.210824C422.167 0.252989 419.094 0.379485 422.057 0.379485C423.813 0.33732 422.057 0.252989 424.252 0.210824C435.994 0.0421649 448.065 0.42165 458.819 0.379485C477.914 0.210825 497.777 0.33732 515.993 0.33732L515.774 0.421649C521.919 0.16866 530.15 0.67464 534.978 0.33732C536.405 0.42165 540.465 0.379483 539.368 0.505978C544.196 0.337318 552.976 0.674638 559.999 0.463813C559.34 0.463813 559.011 0.463813 558.243 0.505978C565.376 0.674637 571.631 0.463815 579.094 0.590309C578.325 0.632474 576.899 0.632472 576.679 0.716802C579.532 0.843297 583.593 0.463815 585.129 0.758969C586.775 0.758969 586.336 0.590309 585.239 0.590309C601.7 0.716804 619.148 0.548143 636.268 0.463813C648.558 0.674638 637.036 1.01196 646.693 0.758969C647.461 0.801134 647.242 0.632472 647.351 0.716802C651.082 0.632472 653.167 1.05412 655.801 0.927626C654.704 0.716802 657.557 0.801132 657.557 0.716802C665.019 0.843297 666.556 1.01196 672.482 0.885462L672.043 0.969794C678.956 0.67464 686.967 0.843297 692.893 0.505978C731.082 0.421648 767.735 0.337319 804.937 0.252989C841.809 0.295154 877.803 0.126493 915.224 0.295153C924.004 0.548142 924.662 0.548144 934.209 0.421649C933.77 0.463814 933.222 0.463813 933.88 0.505978C934.319 0.295153 940.684 0.463813 941.562 0.252989C955.389 0.295154 968.119 0.210825 982.385 0.16866C980.19 0.210825 978.983 0.379485 981.726 0.379485L984.47 0.252989L984.909 0.295153C986.774 0.252988 988.75 0.168658 986.884 0.0843285C1022.66 -0.168661 1057.78 0.252988 1092.78 0.0843285C1101.12 0.168658 1112.86 0.0421649 1121.97 0C1148.75 0.210824 1172.89 0.379485 1200 0.126496C1200.11 0.295156 1196.6 0.885463 1185.4 1.01196Z" fill="#392CC9"></path></svg>