<svg width="192" height="43" viewBox="0 0 192 43" fill="none" xmlns="http://www.w3.org/2000/svg"><path d="M181.291 4.77364L180.852 4.76262V1.13994H173.308V41.6277H182.09V19.0332C182.09 15.3612 182.582 11.165 186.303 9.32849C187.821 8.52132 190.252 7.85952 192 7.85952V6.10352e-05C187.746 0.147999 183.872 1.24924 181.291 4.77364ZM145.746 35.8449C137.695 35.8449 131.392 29.1602 131.392 21.5225C131.392 13.589 137.468 6.97777 145.822 6.97777C154.404 6.97777 160.405 13.3692 160.405 21.5225C160.405 29.3802 153.948 35.8449 145.746 35.8449ZM159.848 6.39327C156.682 2.0641 151.263 6.10352e-05 145.822 6.10352e-05C133.063 6.10352e-05 123.493 9.25482 123.493 21.5956C123.493 33.8615 133.215 42.8225 145.822 42.8225C151.401 42.8225 156.818 40.5577 159.848 35.9637V41.6277H168.464V1.13994H159.848V6.39327ZM100.632 6.97777C106.252 6.97777 110.126 9.84204 112.48 14.6168H121.214C118.859 5.87639 109.594 6.10352e-05 100.556 6.10352e-05C88.1002 6.10352e-05 78.9111 9.47537 78.9111 21.3746C78.9111 33.2743 87.9487 42.8225 100.48 42.8225C110.126 42.8225 118.1 37.0931 121.214 28.3529H112.404C110.201 33.0533 105.872 35.8449 100.48 35.8449C92.0497 35.8449 86.8095 29.0872 86.8095 21.3746C86.8095 13.3692 91.9732 6.97777 100.632 6.97777ZM63.1888 16.6009C60.3026 15.7199 56.6577 14.9109 56.6577 11.3116C56.6577 8.59393 58.9357 6.97777 61.5937 6.97777C64.7839 6.97777 66.6064 8.96106 66.9864 11.8993H74.8851C74.7328 4.84822 69.1887 6.10352e-05 61.9732 6.10352e-05C55.0624 6.10352e-05 48.7587 4.77364 48.7587 11.7517C48.7587 26.1492 67.9734 21.7423 67.9734 30.2619C67.9734 33.7874 65.3911 35.8449 61.8976 35.8449C57.1891 35.8449 56.046 32.6226 55.7414 28.4367H47.0707C47.0707 34.8263 50.1256 39.7377 56.3534 41.8674C58.1006 42.4563 59.9229 42.8225 61.7461 42.8225C69.7962 42.8225 75.8725 37.8279 75.8725 29.8225C75.8725 21.962 70.1002 18.6568 63.1888 16.6009ZM22.7083 35.8449C14.506 35.8449 7.89841 29.3074 7.89841 21.3746C7.89841 13.4421 14.506 6.97777 22.7083 6.97777C30.9111 6.97777 37.5181 13.3692 37.5181 21.3015C37.5181 29.2338 30.9865 35.8449 22.7083 35.8449ZM22.7083 6.10352e-05C10.556 6.10352e-05 0 9.18176 0 21.1536C0 33.2008 10.3288 42.8225 22.7083 42.8225C35.4678 42.8225 45.4171 32.9061 45.4171 21.3015C45.4171 9.25482 35.0121 6.10352e-05 22.7083 6.10352e-05Z" fill="#10284B"></path></svg>