<svg width="143" height="84" viewBox="0 0 143 84" fill="none" xmlns="http://www.w3.org/2000/svg"><path d="M88.919 0.00744629C80.7589 0.00881958 72.1243 0.880562 63.3644 2.71864C27.4686 10.2464 1.00212 31.4425 0.993936 51.5941C0.992573 53.1334 1.1466 54.6672 1.4615 56.1859C4.05976 68.7084 17.0661 77.5959 35.1325 81.209C38.9522 66.3961 47.7353 32.4925 47.7353 32.4925C49.4584 25.7871 50.4195 23.1979 52.1248 20.2784C54.3441 16.5063 57.9034 13.388 62.8927 12.9343C65.6055 12.6889 69.6447 13.0316 71.9035 14.627C74.0369 16.132 74.3082 17.7084 74.2386 19.1448C74.0914 22.1096 72.2879 24.0929 69.4061 24.0929C66.4493 24.0929 65.5278 21.9122 65.5142 20.4744C65.4965 18.5171 66.6511 18.2155 66.6375 16.7653C66.6293 16.0238 65.9586 14.8656 64.1115 15.1562C61.8308 15.5166 59.9319 17.3355 58.6968 20.5073C58.4064 21.2447 58.0507 22.2316 57.6063 23.9175L55.3393 32.7817H70.2949C68.3414 39.9037 65.0289 52.555 64.1019 56.0201H56.547L61.7313 36.5921H54.3264L42.4965 82.3549C46.3244 82.7907 50.324 83.0128 54.4545 83.0045C62.4074 82.9881 70.8429 82.1219 79.4611 80.3126C115.44 72.7656 142.964 51.3707 142.99 31.1601C142.992 29.6661 142.844 28.1775 142.538 26.7041C139.1 10.1381 116.749 0.00744629 88.9299 0.00744629H88.919ZM22.5011 21.183H31.3374C44.893 21.183 45.8473 28.1392 44.6981 33.0914C43.279 39.2211 39.6256 43.5921 24.0647 43.6182C22.5297 49.3202 21.2034 54.2519 20.7276 56.0201H13.125C14.5182 50.8499 22.5011 21.183 22.5011 21.183ZM90.6938 47.8097C90.6938 39.3979 98.2228 32.2265 106.271 32.2265C110.273 32.2265 113.731 34.0961 113.731 37.2802C113.731 40.5822 111.116 43.9787 107.163 45.2671C104.703 46.095 102.217 46.5843 98.0442 46.5843C97.9447 47.467 97.9842 47.8083 97.9842 48.2853C97.9842 50.5291 99.8818 52.444 102.522 52.444C106.065 52.444 109.408 49.1763 109.799 48.7802L111.116 52.3193C110.057 53.424 108.876 54.3835 107.533 55.0839C105.418 56.1914 102.993 56.7876 100.34 56.7876C94.5885 56.7876 90.6938 53.1718 90.6938 47.8097ZM132.841 32.3801C137.039 32.3801 137.668 34.8897 137.668 36.8361C137.668 39.121 136.064 40.6891 134.226 40.6891C132.832 40.6891 132.218 40.1257 131.972 39.879C131.331 39.2348 131.223 38.5755 131.151 38.0272C131.06 37.3816 130.85 36.758 130.115 36.6374C129.052 36.4688 128.182 36.8978 127.279 37.7038C126.059 38.7948 125.019 40.5191 124.26 42.1776C123.736 43.3208 123.348 44.405 123.13 45.1767L120.195 56.0201H112.585L118.825 32.7817H126.204L124.88 37.4392C126.614 35.327 129.859 32.3801 132.841 32.3801ZM73.7302 32.7817H92.6432C90.4648 40.0079 80.2231 45.8771 77.3958 51.3461H89.3143L88.0656 56.0201H68.7109C68.7109 48.6774 80.932 40.1956 83.2562 36.5921H72.7064L73.7302 32.7817ZM29.1672 24.6494C28.078 28.697 26.5389 34.4196 25.0599 39.9119C31.0907 39.8968 34.879 38.8469 36.7384 32.8461C38.257 27.9336 37.6626 24.6494 30.4936 24.6494H29.1672ZM102.491 37.1925C100.6 38.6495 99.1498 40.944 98.5827 43.5086C102.022 43.3879 103.966 42.8712 105.75 41.4635C107.355 40.1984 108.076 38.7729 108.076 37.5722C108.076 36.9129 107.673 35.8794 105.825 35.8794C104.984 35.8794 103.614 36.3221 102.491 37.1925Z" fill="#10284B"></path></svg>